<svg xmlns="http://www.w3.org/2000/svg" xmlns:xlink="http://www.w3.org/1999/xlink" xmlns:lucid="lucid" width="848.4" height="733.62"><g transform="translate(-171.6000000000676 -164)" lucid:page-tab-id="0_0"><path d="M372.17 833.54c0 22.66-18.37 41.04-41.04 41.04-22.66 0-41.04-18.38-41.04-41.04 0-22.67 18.37-41.04 41.03-41.04 22.67 0 41.04 18.37 41.04 41.04z" stroke="#333" stroke-width="3" fill="#fff"/><path d="M331.13 874.58c-2.26 0-4.1-1.84-4.1-4.1v-48.93c0-2.45-1.98-4.43-4.43-4.43-2.45 0-3.55-1.78-2.46-3.97l8.33-16.8c1.47-2.97 3.86-2.97 5.33 0l8.33 16.8c1.08 2.2-.02 3.97-2.46 3.97-2.45 0-4.43 1.98-4.43 4.43v48.92c0 2.27-1.84 4.1-4.1 4.1z" stroke="#333" stroke-width="3" fill="#333"/><path d="M470.67 835.06c0 22.66-18.38 41.04-41.04 41.04-22.67 0-41.04-18.38-41.04-41.04 0-22.67 18.36-41.04 41.03-41.04 22.66 0 41.04 18.37 41.04 41.04z" stroke="#333" stroke-width="3" fill="#fff"/><path d="M429.63 876.1c-2.27 0-4.1-1.84-4.1-4.1v-48.93c0-2.44-2-4.43-4.44-4.43-2.45 0-3.55-1.77-2.47-3.96l8.33-16.8c1.47-2.98 3.86-2.98 5.33 0l8.32 16.8c1.1 2.2 0 3.96-2.46 3.96-2.45 0-4.43 2-4.43 4.43V872c0 2.26-1.84 4.1-4.1 4.1z" stroke="#333" stroke-width="3" fill="#333"/><path d="M657.18 833.54c0 22.66-18.37 41.04-41.03 41.04-22.67 0-41.04-18.38-41.04-41.04 0-22.67 18.38-41.04 41.05-41.04 22.66 0 41.03 18.37 41.03 41.04z" stroke="#333" stroke-width="3" fill="#fff"/><path d="M616.15 874.58c-2.27 0-4.1-1.84-4.1-4.1v-48.93c0-2.45-2-4.43-4.44-4.43-2.43 0-3.53-1.78-2.45-3.97l8.33-16.8c1.47-2.97 3.86-2.97 5.33 0l8.34 16.8c1.1 2.2-.02 3.97-2.46 3.97-2.45 0-4.43 1.98-4.43 4.43v48.92c0 2.27-1.84 4.1-4.1 4.1zM500 834.3c0 3.57-2.9 6.46-6.46 6.46s-6.46-2.9-6.46-6.46c0-3.57 2.9-6.46 6.46-6.46 3.57 0 6.47 2.9 6.47 6.46zM529.35 835.06c0 3.57-2.9 6.46-6.46 6.46-3.58 0-6.48-2.9-6.48-6.46 0-3.57 2.9-6.46 6.47-6.46 3.56 0 6.45 2.9 6.45 6.46zM558.7 835.06c0 3.57-2.9 6.46-6.47 6.46s-6.47-2.9-6.47-6.46c0-3.57 2.9-6.46 6.47-6.46s6.46 2.9 6.46 6.46z" stroke="#333" stroke-width="3" fill="#333"/><path d="M324.6 682.75c0 23.1-18.4 41.8-41.05 41.8-22.67 0-41.04-18.7-41.04-41.8 0-23.1 18.38-41.8 41.05-41.8 22.66 0 41.04 18.7 41.04 41.8z" stroke="#333" stroke-width="3" fill="#fff"/><path d="M242.5 682.75c0-.23.2-.4.42-.4h81.25c.23 0 .42.17.42.4s-.2.4-.43.4h-81.25c-.23 0-.4-.17-.4-.4z" stroke="#333" stroke-width="3" fill="#fff"/><path d="M268.9 683.16h29.3v41.4h-29.3z" fill="#fff" fill-opacity="0"/><path d="M297.05 709l-1.3 9.57H270.3v-.7l12.53-14.5-12.53-15.17v-.7H295v7.56h-1.2c-.7-4.8-2.9-5.78-7.03-5.78H277l9.96 12.06-11.12 12.77h14.55c3.6 0 4.87-1.54 5.57-5.1h1.08"/><path d="M258.92 670.67c0-.22.2-.4.4-.4h25.13c.23 0 .4.18.4.4 0 .23-.17.4-.4.4h-25.12c-.22 0-.4-.17-.4-.4zM285.15 670.8c-.16-.17-.16-.43 0-.6l17.76-17.75c.17-.16.43-.16.6 0 .15.16.15.42 0 .58l-17.77 17.76c-.16.15-.42.15-.58 0zM423.08 682.75c0 23.1-18.37 41.8-41.04 41.8-22.67 0-41.04-18.7-41.04-41.8 0-23.1 18.37-41.8 41.04-41.8 22.67 0 41.04 18.7 41.04 41.8z" stroke="#333" stroke-width="3" fill="#fff"/><path d="M341 682.75c0-.23.18-.4.4-.4h81.27c.23 0 .4.17.4.4s-.17.4-.4.4H341.4c-.22 0-.4-.17-.4-.4z" stroke="#333" stroke-width="3" fill="#fff"/><path d="M367.38 683.16h29.32v41.4h-29.32z" fill="#fff" fill-opacity="0"/><path d="M395.55 709l-1.32 9.57H368.8v-.7l12.52-14.5-12.53-15.17v-.7h24.68v7.56h-1.17c-.7-4.8-2.9-5.78-7.03-5.78h-9.77l9.95 12.06-11.12 12.77h14.55c3.62 0 4.88-1.54 5.6-5.1h1.07"/><path d="M357.42 670.67c0-.22.18-.4.4-.4h25.12c.23 0 .4.18.4.4 0 .23-.17.4-.4.4h-25.1c-.24 0-.42-.17-.42-.4zM383.64 670.8c-.16-.17-.16-.43 0-.6l17.76-17.75c.16-.16.42-.16.58 0 .16.16.16.42 0 .58l-17.76 17.76c-.16.15-.42.15-.58 0zM609.6 682.75c0 23.1-18.38 41.8-41.04 41.8-22.67 0-41.04-18.7-41.04-41.8 0-23.1 18.37-41.8 41.04-41.8 22.66 0 41.04 18.7 41.04 41.8z" stroke="#333" stroke-width="3" fill="#fff"/><path d="M527.52 682.75c0-.23.18-.4.4-.4h81.27c.2 0 .4.17.4.4s-.2.4-.4.4h-81.27c-.23 0-.4-.17-.4-.4z" stroke="#333" stroke-width="3" fill="#fff"/><path d="M553.9 683.16h29.3v41.4h-29.3z" fill="#fff" fill-opacity="0"/><path d="M582.06 709l-1.3 9.57H555.3v-.7l12.54-14.5-12.53-15.17v-.7H580v7.56h-1.17c-.7-4.8-2.9-5.78-7.04-5.78H562l9.95 12.06-11.12 12.77h14.55c3.6 0 4.88-1.54 5.58-5.1h1.08"/><path d="M543.93 670.67c0-.22.2-.4.4-.4h25.13c.23 0 .4.18.4.4 0 .23-.17.4-.4.4h-25.12c-.22 0-.4-.17-.4-.4zM570.16 670.8c-.16-.17-.16-.43 0-.6l17.76-17.75c.16-.16.42-.16.58 0 .16.16.16.42 0 .58l-17.76 17.76c-.16.15-.42.15-.58 0z" stroke="#333" stroke-width="3" fill="#fff"/><path d="M452.42 682.37c0 3.57-2.9 6.46-6.46 6.46-3.57 0-6.47-2.9-6.47-6.46 0-3.57 2.9-6.46 6.46-6.46 3.57 0 6.46 2.9 6.46 6.47zM481.76 683.13c0 3.57-2.9 6.46-6.46 6.46-3.57 0-6.46-2.9-6.46-6.47s2.9-6.46 6.46-6.46c3.57 0 6.46 2.9 6.46 6.46zM511.1 683.13c0 3.57-2.9 6.46-6.46 6.46-3.57 0-6.46-2.9-6.46-6.47s2.9-6.46 6.46-6.46c3.57 0 6.46 2.9 6.46 6.46z" stroke="#333" stroke-width="3" fill="#333"/><path d="M330.2 791.64l-34.75-48.8" stroke="#333" stroke-width="3" fill="none"/><path d="M333.22 793.28l-3.33-.65-.48.5-.46-.65 2.45-1.74z" fill="#333"/><path d="M286.3 730l12.06 8.93-7.55 5.38z" stroke="#333" stroke-width="3" fill="#333"/><path d="M332 791.67l38.9-50.76" stroke="#333" stroke-width="3" fill="none"/><path d="M333.2 792.56l-.48.63-2.83-.57-1.7 1.8-.14-.1 2.76-3.6z" fill="#333"/><path d="M380.5 728.4l-5 14.14-7.35-5.64z" stroke="#333" stroke-width="3" fill="#333"/><path d="M332.52 792.45l217.3-62.22" stroke="#333" stroke-width="3" fill="none"/><path d="M332.77 793.2l-2.88-.57-1.54 1.64-.58-2.02 4.36-1.25z" fill="#333"/><path d="M565 725.9l-12.45 8.37-2.55-8.9z" stroke="#333" stroke-width="3" fill="#333"/><path d="M428.68 793.83L301.24 733.4" stroke="#333" stroke-width="3" fill="none"/><path d="M433.4 794.4l-.72 1.5-.78-1.05-3.42-.68.8-1.7z" fill="#333"/><path d="M287 726.63l14.87 1.93-3.98 8.37z" stroke="#333" stroke-width="3" fill="#333"/><path d="M429.2 793.24l-35.15-51.64" stroke="#333" stroke-width="3" fill="none"/><path d="M432.96 796.1l-.07.06-1-1.3-3.52-.7-.22.23-.23-.35 2.48-1.7z" fill="#333"/><path d="M385.18 728.56l11.86 9.2-7.67 5.2z" stroke="#333" stroke-width="3" fill="#333"/><path d="M431.37 793.8l119.85-60.02" stroke="#333" stroke-width="3" fill="none"/><path d="M432 794.98l-.1-.13-3.52-.7-1.2 1.3-.5-.97 4.06-2.03z" fill="#333"/><path d="M565.3 726.72l-10.67 10.54-4.15-8.3z" stroke="#333" stroke-width="3" fill="#333"/><path d="M616.15 791.82l-34.77-48.97" stroke="#333" stroke-width="3" fill="none"/><path d="M619.98 794.63l-.38.27-1.18-1.58-3.48-.68 2.4-1.72z" fill="#333"/><path d="M572.26 730l12.04 8.94-7.56 5.37z" stroke="#333" stroke-width="3" fill="#333"/><path d="M615.58 792.63l-213.34-62.3" stroke="#333" stroke-width="3" fill="none"/><path d="M620.32 792.45l-.72 2.46-1.18-1.58-2.9-.57.45-1.57z" fill="#333"/><path d="M387.1 725.9l15-.44-2.6 8.9z" stroke="#333" stroke-width="3" fill="#333"/><path d="M615.55 792.75l-311.8-62.64" stroke="#333" stroke-width="3" fill="none"/><path d="M620.26 792.17l-.57 2.85-1.28-1.7-2.9-.57.3-1.48z" fill="#333"/><path d="M288.3 727l14.9-1.73-1.82 9.1z" stroke="#333" stroke-width="3" fill="#333"/><path d="M372.17 523.12c0 23.1-18.37 41.8-41.04 41.8-22.66 0-41.04-18.7-41.04-41.8 0-23.08 18.37-41.8 41.03-41.8 22.67 0 41.04 18.72 41.04 41.8z" stroke="#333" stroke-width="3" fill="#fff"/><path d="M290.1 523.12c0-.22.18-.4.4-.4h81.26c.23 0 .4.18.4.4 0 .23-.17.4-.4.4H290.5c-.22 0-.4-.17-.4-.4z" stroke="#333" stroke-width="3" fill="#fff"/><path d="M316.48 523.53h29.3v41.4h-29.3z" fill="#fff" fill-opacity="0"/><path d="M344.64 549.37l-1.3 9.57h-25.46v-.7l12.54-14.5-12.54-15.17v-.7h24.7v7.56h-1.18c-.7-4.8-2.9-5.78-7.04-5.78h-9.76l9.95 12.07-11.13 12.76h14.55c3.62 0 4.9-1.54 5.6-5.1h1.07"/><path d="M306.5 511.05c0-.23.2-.4.42-.4h25.12c.22 0 .4.17.4.4 0 .22-.18.4-.4.4h-25.12c-.23 0-.4-.18-.4-.4zM332.74 511.17c-.16-.16-.16-.42 0-.58l17.76-17.77c.16-.16.42-.16.58 0 .16.16.16.42 0 .58l-17.76 17.77c-.16.16-.42.16-.58 0zM470.67 523.12c0 23.1-18.38 41.8-41.04 41.8-22.67 0-41.04-18.7-41.04-41.8 0-23.08 18.36-41.8 41.03-41.8 22.66 0 41.04 18.72 41.04 41.8z" stroke="#333" stroke-width="3" fill="#fff"/><path d="M388.6 523.12c0-.22.17-.4.4-.4h81.26c.22 0 .4.18.4.4 0 .23-.18.4-.4.4H389c-.23 0-.4-.17-.4-.4z" stroke="#333" stroke-width="3" fill="#fff"/><path d="M414.97 523.53h29.3v41.4h-29.3z" fill="#fff" fill-opacity="0"/><path d="M443.13 549.37l-1.3 9.57h-25.45v-.7l12.53-14.5-12.52-15.17v-.7h24.7v7.56h-1.2c-.7-4.8-2.9-5.78-7.03-5.78h-9.76l9.94 12.07-11.12 12.76h14.55c3.6 0 4.88-1.54 5.58-5.1h1.08"/><path d="M405 511.05c0-.23.2-.4.4-.4h25.13c.23 0 .4.17.4.4 0 .22-.17.4-.4.4H405.4c-.2 0-.4-.18-.4-.4zM431.23 511.17c-.16-.16-.16-.42 0-.58L449 492.82c.15-.16.4-.16.57 0 .16.16.16.42 0 .58l-17.76 17.77c-.15.16-.4.16-.57 0zM657.18 523.12c0 23.1-18.37 41.8-41.03 41.8-22.67 0-41.04-18.7-41.04-41.8 0-23.08 18.38-41.8 41.05-41.8 22.66 0 41.03 18.72 41.03 41.8z" stroke="#333" stroke-width="3" fill="#fff"/><path d="M575.1 523.12c0-.22.2-.4.42-.4h81.25c.23 0 .4.18.4.4 0 .23-.17.4-.4.4h-81.25c-.23 0-.4-.17-.4-.4z" stroke="#333" stroke-width="3" fill="#fff"/><path d="M601.5 523.53h29.3v41.4h-29.3z" fill="#fff" fill-opacity="0"/><path d="M629.65 549.37l-1.3 9.57H602.9v-.7l12.53-14.5-12.53-15.17v-.7h24.7v7.56h-1.2c-.7-4.8-2.9-5.78-7.03-5.78h-9.76l9.96 12.07-11.12 12.76H623c3.6 0 4.87-1.54 5.57-5.1h1.08"/><path d="M591.52 511.05c0-.23.2-.4.4-.4h25.13c.22 0 .4.17.4.4 0 .22-.18.4-.4.4h-25.12c-.22 0-.4-.18-.4-.4zM617.75 511.17c-.16-.16-.16-.42 0-.58l17.76-17.77c.17-.16.43-.16.6 0 .15.16.15.42 0 .58l-17.77 17.77c-.16.16-.42.16-.58 0z" stroke="#333" stroke-width="3" fill="#fff"/><path d="M500 522.74c0 3.57-2.9 6.47-6.46 6.47s-6.46-2.9-6.46-6.46c0-3.57 2.9-6.46 6.46-6.46 3.57 0 6.47 2.9 6.47 6.46zM529.35 523.5c0 3.57-2.9 6.47-6.46 6.47-3.58 0-6.48-2.9-6.48-6.47s2.9-6.46 6.47-6.46c3.56 0 6.45 2.9 6.45 6.46zM558.7 523.5c0 3.57-2.9 6.47-6.47 6.47s-6.47-2.9-6.47-6.47 2.9-6.46 6.47-6.46 6.46 2.9 6.46 6.46z" stroke="#333" stroke-width="3" fill="#333"/><path d="M273.68 522.74c0 23.1-18.38 41.8-41.04 41.8-22.67 0-41.04-18.7-41.04-41.8 0-23.08 18.37-41.8 41.04-41.8 22.66 0 41.04 18.72 41.04 41.8z" stroke="#333" stroke-width="3" fill="#fff"/><path d="M191.6 522.74c0-.22.18-.4.4-.4h81.27c.22 0 .4.18.4.4 0 .23-.18.4-.4.4H192c-.22 0-.4-.17-.4-.4z" stroke="#333" stroke-width="3" fill="#fff"/><path d="M217.98 523.15h29.32v41.4h-29.32z" fill="#fff" fill-opacity="0"/><path d="M246.15 549l-1.32 9.56H219.4v-.7l12.52-14.5-12.53-15.17v-.7h24.68v7.55h-1.17c-.7-4.8-2.9-5.78-7.03-5.78h-9.77l9.95 12.07-11.12 12.76h14.55c3.6 0 4.88-1.55 5.6-5.1h1.07"/><path d="M208.02 510.67c0-.23.18-.4.4-.4h25.12c.23 0 .4.17.4.4 0 .22-.17.4-.4.4h-25.1c-.24 0-.42-.18-.42-.4zM234.24 510.8c-.16-.17-.16-.43 0-.6L252 492.46c.16-.16.42-.16.58 0 .16.16.16.42 0 .58l-17.76 17.76c-.16.15-.42.15-.58 0z" stroke="#333" stroke-width="3" fill="#fff"/><path d="M282.7 638.22l-39.26-56.72" stroke="#333" stroke-width="3" fill="none"/><path d="M285.45 639.56l-1.87-.1h-.74l-1.06.08-.34-.5 2.46-1.7z" fill="#333"/><path d="M234.47 568.53l11.93 9.1-7.62 5.27z" stroke="#333" stroke-width="3" fill="#333"/><path d="M284.35 638.2l35.75-55.9" stroke="#333" stroke-width="3" fill="none"/><path d="M285.64 638.96l-.38.6-1.68-.1h-.74l-1.13.08 1.4-2.2z" fill="#333"/><path d="M328.6 569l-3.8 14.53-7.8-5z" stroke="#333" stroke-width="3" fill="#333"/><path d="M284.88 638.77l126.3-64.47" stroke="#333" stroke-width="3" fill="none"/><path d="M285.33 639.55l-1.75-.1h-.74l-2.56.2-.1-.17 4.05-2.07z" fill="#333"/><path d="M425.24 567.13l-10.6 10.6-4.22-8.24z" stroke="#333" stroke-width="3" fill="#333"/><path d="M285 639.12l311.44-69.7" stroke="#333" stroke-width="3" fill="none"/><path d="M285.14 639.54l-1.56-.1-.74.02-2.33.17-.2-1 4.42-.98z" fill="#333"/><path d="M611.82 565.98l-12.9 7.64-2.03-9.04z" stroke="#333" stroke-width="3" fill="#333"/><path d="M380.7 638.8l-129.55-63.66" stroke="#333" stroke-width="3" fill="none"/><path d="M385.4 639.43l-.1.2-3.22-.18h-.75l-1.05.08 1.04-2.1z" fill="#333"/><path d="M237 568.18l14.84 2.13-4.08 8.33z" stroke="#333" stroke-width="3" fill="#333"/><path d="M381.18 638.22l-38.26-54.88" stroke="#333" stroke-width="3" fill="none"/><path d="M383.95 639.56l-1.87-.1h-.75l-1.06.08-.34-.5 2.46-1.7z" fill="#333"/><path d="M333.9 570.4l11.97 9.06-7.6 5.3z" stroke="#333" stroke-width="3" fill="#333"/><path d="M383.2 638.2l35.23-54.46" stroke="#333" stroke-width="3" fill="none"/><path d="M384.5 639l-.38.57-2.04-.12h-.75l-.75.06 1.4-2.14z" fill="#333"/><path d="M427 570.5l-3.86 14.5-7.8-5.04z" stroke="#333" stroke-width="3" fill="#333"/><path d="M383.47 639l213.44-67.83" stroke="#333" stroke-width="3" fill="none"/><path d="M383.68 639.55l-1.6-.1h-.75l-2.38.2-.22-.72 4.32-1.38z" fill="#333"/><path d="M611.93 566.4l-12.2 8.73-2.8-8.83z" stroke="#333" stroke-width="3" fill="#333"/><path d="M567.1 639.13l-314.32-68.68" stroke="#333" stroke-width="3" fill="none"/><path d="M571.8 638.63l-.2 1-3-.18h-.75l-.88.07.4-1.86z" fill="#333"/><path d="M237.38 567.08l14.93-1.48-1.97 9.05z" stroke="#333" stroke-width="3" fill="#333"/><path d="M567.13 639l-216.25-67.9" stroke="#333" stroke-width="3" fill="none"/><path d="M571.87 638.92l-.22.7-3.05-.17h-.75l-.93.08.62-1.97z" fill="#333"/><path d="M335.84 566.38l15-.15-2.78 8.84z" stroke="#333" stroke-width="3" fill="#333"/><path d="M567.24 638.74l-119.5-64.07" stroke="#333" stroke-width="3" fill="none"/><path d="M571.9 639.55l-.04.1-3.26-.2h-.75l-1.08.1 1.14-2.15z" fill="#333"/><path d="M433.84 567.22l14.76 2.65-4.38 8.17z" stroke="#333" stroke-width="3" fill="#333"/><path d="M569.37 638.2l36.02-55.94" stroke="#333" stroke-width="3" fill="none"/><path d="M570.65 638.97l-.37.58-1.68-.1h-.75l-1.13.1 1.4-2.2z" fill="#333"/><path d="M613.93 569l-3.83 14.5-7.8-5z" stroke="#333" stroke-width="3" fill="#333"/><path d="M324.6 362.73c0 23.1-18.4 41.8-41.05 41.8-22.67 0-41.04-18.7-41.04-41.8 0-23.08 18.38-41.8 41.05-41.8 22.66 0 41.04 18.72 41.04 41.8z" stroke="#333" stroke-width="3" fill="#fff"/><path d="M266.3 338.4h34.5v48.68h-34.5z" fill="#fff" fill-opacity="0"/><path d="M299.43 368.78l-1.54 11.26h-29.94v-.82l14.74-17.07-14.74-17.83v-.83H297v8.88h-1.38c-.82-5.63-3.42-6.8-8.28-6.8h-11.48l11.7 14.2-13.08 15.02h17.1c4.27 0 5.76-1.82 6.58-6.02h1.27"/><path d="M423.08 363.5c0 23.08-18.37 41.8-41.04 41.8-22.67 0-41.04-18.72-41.04-41.8 0-23.1 18.37-41.8 41.04-41.8 22.67 0 41.04 18.7 41.04 41.8z" stroke="#333" stroke-width="3" fill="#fff"/><path d="M364.8 339.15h34.48v48.7H364.8z" fill="#fff" fill-opacity="0"/><path d="M397.93 369.54l-1.55 11.27h-29.92V380l14.74-17.06-14.74-17.84v-.83h29.04v8.9h-1.38c-.83-5.64-3.43-6.8-8.28-6.8h-11.5l11.72 14.2-13.1 15h17.13c4.24 0 5.73-1.8 6.56-6h1.27"/><path d="M609.6 363.5c0 23.08-18.38 41.8-41.04 41.8-22.67 0-41.04-18.72-41.04-41.8 0-23.1 18.37-41.8 41.04-41.8 22.66 0 41.04 18.7 41.04 41.8z" stroke="#333" stroke-width="3" fill="#fff"/><path d="M551.32 339.15h34.48v48.7h-34.48z" fill="#fff" fill-opacity="0"/><path d="M584.45 369.54l-1.55 11.27h-29.93V380l14.75-17.06-14.75-17.84v-.83h29.05v8.9h-1.38c-.83-5.64-3.43-6.8-8.3-6.8h-11.47l11.7 14.2-13.08 15h17.1c4.26 0 5.75-1.8 6.58-6h1.27"/><path d="M452.42 360.14c0 3.57-2.9 6.46-6.46 6.46-3.57 0-6.47-2.9-6.47-6.46 0-3.57 2.9-6.46 6.46-6.46 3.57 0 6.46 2.9 6.46 6.46zM481.76 360.9c0 3.57-2.9 6.46-6.46 6.46-3.57 0-6.46-2.9-6.46-6.46 0-3.57 2.9-6.46 6.46-6.46 3.57 0 6.46 2.9 6.46 6.46zM511.1 360.9c0 3.57-2.9 6.46-6.46 6.46-3.57 0-6.46-2.9-6.46-6.46 0-3.57 2.9-6.46 6.46-6.46 3.57 0 6.46 2.9 6.46 6.46z" stroke="#333" stroke-width="3" fill="#333"/><path d="M233.5 478.2L271.8 423" stroke="#333" stroke-width="3" fill="none"/><path d="M234.75 479.03l-.36.5-1.72-.1-.75.02-1.18.1 1.53-2.23z" fill="#333"/><path d="M280.78 410.02l-4.32 14.37-7.62-5.3z" stroke="#333" stroke-width="3" fill="#333"/><path d="M234 478.8l129.5-63" stroke="#333" stroke-width="3" fill="none"/><path d="M234.4 479.54l-1.72-.1h-.75l-2.53.2-.1-.24 4.07-1.98z" fill="#333"/><path d="M377.67 408.92l-10.8 10.4-4.05-8.33z" stroke="#333" stroke-width="3" fill="#333"/><path d="M234.1 479.12l314.3-67.97" stroke="#333" stroke-width="3" fill="none"/><path d="M234.23 479.53l-1.55-.1-.75.02-2.32.17-.2-1 4.43-.97z" fill="#333"/><path d="M563.8 407.82l-12.95 7.55-1.96-9.06z" stroke="#333" stroke-width="3" fill="#333"/><path d="M330.32 478.56l-35.6-55.2" stroke="#333" stroke-width="3" fill="none"/><path d="M333 479.93l-1.83-.1h-.75l-1.02.08-.36-.56 2.52-1.62z" fill="#333"/><path d="M286.18 410.1l11.62 9.5-7.8 5.02z" stroke="#333" stroke-width="3" fill="#333"/><path d="M332 478.6l38.25-54.9" stroke="#333" stroke-width="3" fill="none"/><path d="M333.24 479.42l-.35.5-1.73-.1h-.75l-1.18.1 1.54-2.22z" fill="#333"/><path d="M379.26 410.78l-4.35 14.35-7.6-5.3z" stroke="#333" stroke-width="3" fill="#333"/><path d="M332.57 479.38l216.28-66.52" stroke="#333" stroke-width="3" fill="none"/><path d="M332.77 479.92l-1.6-.1h-.75l-2.37.2-.23-.75 4.34-1.33z" fill="#333"/><path d="M563.92 408.22l-12.27 8.63-2.73-8.86z" stroke="#333" stroke-width="3" fill="#333"/><path d="M428.3 479.15l-126.35-63.82" stroke="#333" stroke-width="3" fill="none"/><path d="M432.98 479.84l-.1.17-3.2-.18h-.76l-1.06.1 1.07-2.13z" fill="#333"/><path d="M287.88 408.22l14.82 2.3-4.18 8.27z" stroke="#333" stroke-width="3" fill="#333"/><path d="M428.8 478.57l-35.5-54.5" stroke="#333" stroke-width="3" fill="none"/><path d="M431.5 479.93l-1.83-.1h-.75l-1.03.08-.37-.55 2.5-1.64z" fill="#333"/><path d="M384.7 410.86l11.66 9.42-7.76 5.07z" stroke="#333" stroke-width="3" fill="#333"/><path d="M430.95 479.12L550.3 416.4" stroke="#333" stroke-width="3" fill="none"/><path d="M431.42 479.93l-1.75-.1h-.75l-2.58.2-.07-.14 4.02-2.12z" fill="#333"/><path d="M564.26 409.05L553.8 419.8l-4.32-8.2z" stroke="#333" stroke-width="3" fill="#333"/><path d="M614.68 479.5l-311-69" stroke="#333" stroke-width="3" fill="none"/><path d="M619.4 479l-.22 1-3-.18h-.75l-.88.07.42-1.88z" fill="#333"/><path d="M288.28 407.1l14.94-1.45-2 9.05z" stroke="#333" stroke-width="3" fill="#333"/><path d="M614.7 479.38l-212.98-66.44" stroke="#333" stroke-width="3" fill="none"/><path d="M619.46 479.28l-.23.72-3.05-.18h-.75l-.92.08.62-1.97z" fill="#333"/><path d="M386.67 408.24l15-.18-2.76 8.85z" stroke="#333" stroke-width="3" fill="#333"/><path d="M615.33 478.57l-35.5-54.5" stroke="#333" stroke-width="3" fill="none"/><path d="M618 479.93l-1.82-.1h-.75l-1.02.08-.35-.55 2.5-1.64z" fill="#333"/><path d="M571.2 410.86l11.68 9.42-7.77 5.07z" stroke="#333" stroke-width="3" fill="#333"/><path d="M283.55 317.93v-97.3" stroke="#333" stroke-width="3" fill="none"/><path d="M285.05 319.52l-1.47-.1-.74.02-.8.06v-1.6h3z" fill="#333"/><path d="M283.55 204.85l4.63 14.27h-9.27z" stroke="#333" stroke-width="3" fill="#333"/><path d="M382.04 318.7v-98.08" stroke="#333" stroke-width="3" fill="none"/><path d="M383.54 320.28l-1.46-.1-.75.02-.8.06v-1.6h3z" fill="#333"/><path d="M382.04 204.85l4.64 14.27h-9.28z" stroke="#333" stroke-width="3" fill="#333"/><path d="M568.56 318.7v-98.08" stroke="#333" stroke-width="3" fill="none"/><path d="M570.06 320.28l-1.46-.1-.75.02-.8.06v-1.6h3z" fill="#333"/><path d="M568.56 204.85l4.63 14.27h-9.28z" stroke="#333" stroke-width="3" fill="#333"/><path d="M242.5 238.83c0-3.3 2.7-6 6-6h355.1c3.3 0 6 2.7 6 6v53.66c0 3.3-2.7 6-6 6H248.5c-3.3 0-6-2.7-6-6z" stroke="#333" stroke-width="3" fill="#fff"/><use xlink:href="#a" transform="matrix(1,0,0,1,247.506668305886,237.83133696346732) translate(114.78125000000006 38.75260416666664)"/><use xlink:href="#b" transform="matrix(1,0,0,1,247.506668305886,237.83133696346732) translate(130.83593750000006 38.75260416666664)"/><path d="M700 246c0-3.3 2.7-6 6-6h288c3.3 0 6 2.7 6 6v153.3c0 3.3-2.7 6-6 6H706c-3.3 0-6-2.7-6-6z" fill="none"/><path d="M700 405.3c5.52 0 10-4.48 10-10v-62.65c0-5.52 4.48-10 10-10-5.52 0-10-4.48-10-10V250c0-5.52-4.48-10-10-10" stroke="#000" stroke-width="3" fill="none"/><use xlink:href="#c" transform="matrix(1,0,0,1,735,245) translate(0 53.55555555555557)"/><use xlink:href="#d" transform="matrix(1,0,0,1,735,245) translate(90.716049382716 53.55555555555557)"/><use xlink:href="#e" transform="matrix(1,0,0,1,735,245) translate(0 82.88888888888889)"/><use xlink:href="#f" transform="matrix(1,0,0,1,735,245) translate(16.907407407407398 82.88888888888889)"/><use xlink:href="#g" transform="matrix(1,0,0,1,735,245) translate(96.14814814814807 82.88888888888889)"/><use xlink:href="#h" transform="matrix(1,0,0,1,735,245) translate(0 112.2222222222222)"/><use xlink:href="#i" transform="matrix(1,0,0,1,735,245) translate(30.555555555555536 112.2222222222222)"/><path d="M700 486.94c0-3.3 2.7-6 6-6h288c3.3 0 6 2.7 6 6V574c0 3.3-2.7 6-6 6H706c-3.3 0-6-2.7-6-6z" fill="none"/><path d="M700 580c5.52 0 10-4.48 10-10v-29.53c0-5.52 4.48-10 10-10-5.52 0-10-4.48-10-10v-29.53c0-5.52-4.48-10-10-10" stroke="#000" stroke-width="3" fill="none"/><use xlink:href="#c" transform="matrix(1,0,0,1,735,485.94194751364955) translate(0 20.55555555555557)"/><use xlink:href="#j" transform="matrix(1,0,0,1,735,485.94194751364955) translate(90.716049382716 20.55555555555557)"/><use xlink:href="#e" transform="matrix(1,0,0,1,735,485.94194751364955) translate(0 49.888888888888886)"/><use xlink:href="#f" transform="matrix(1,0,0,1,735,485.94194751364955) translate(16.907407407407398 49.888888888888886)"/><use xlink:href="#k" transform="matrix(1,0,0,1,735,485.94194751364955) translate(96.14814814814807 49.888888888888886)"/><use xlink:href="#l" transform="matrix(1,0,0,1,735,485.94194751364955) translate(0 79.2222222222222)"/><use xlink:href="#i" transform="matrix(1,0,0,1,735,485.94194751364955) translate(30.555555555555536 79.2222222222222)"/><path d="M700 646.95c0-3.3 2.7-6 6-6h288c3.3 0 6 2.7 6 6V734c0 3.32-2.7 6-6 6H706c-3.3 0-6-2.68-6-6z" fill="none"/><path d="M700 740c5.52 0 10-4.47 10-10V700.5c0-5.52 4.48-10 10-10-5.52 0-10-4.48-10-10v-29.53c0-5.52-4.48-10-10-10" stroke="#000" stroke-width="3" fill="none"/><use xlink:href="#c" transform="matrix(1,0,0,1,735,645.9500831123698) translate(0 20.55555555555557)"/><use xlink:href="#j" transform="matrix(1,0,0,1,735,645.9500831123698) translate(90.716049382716 20.55555555555557)"/><use xlink:href="#e" transform="matrix(1,0,0,1,735,645.9500831123698) translate(0 49.888888888888886)"/><use xlink:href="#f" transform="matrix(1,0,0,1,735,645.9500831123698) translate(16.907407407407398 49.888888888888886)"/><use xlink:href="#k" transform="matrix(1,0,0,1,735,645.9500831123698) translate(96.14814814814807 49.888888888888886)"/><use xlink:href="#m" transform="matrix(1,0,0,1,735,645.9500831123698) translate(0 79.2222222222222)"/><use xlink:href="#i" transform="matrix(1,0,0,1,735,645.9500831123698) translate(30.555555555555536 79.2222222222222)"/><path d="M700 797.74c0-3.32 2.7-6 6-6h288c3.3 0 6 2.68 6 6v73.12c0 3.3-2.7 6-6 6H706c-3.3 0-6-2.7-6-6z" fill="none"/><path d="M700 876.86c5.52 0 10-4.48 10-10V844.3c0-5.52 4.48-10 10-10-5.52 0-10-4.48-10-10v-22.56c0-5.53-4.48-10-10-10" stroke="#000" stroke-width="3" fill="none"/><g><use xlink:href="#c" transform="matrix(1,0,0,1,735,796.7361952881803) translate(0 28.22222222222223)"/><use xlink:href="#n" transform="matrix(1,0,0,1,735,796.7361952881803) translate(90.716049382716 28.22222222222223)"/><use xlink:href="#o" transform="matrix(1,0,0,1,735,796.7361952881803) translate(0 57.55555555555554)"/><use xlink:href="#p" transform="matrix(1,0,0,1,735,796.7361952881803) translate(42.77777777777775 57.55555555555554)"/></g><path d="M273.68 836.58c0 22.67-18.38 41.04-41.04 41.04-22.67 0-41.04-18.37-41.04-41.04 0-22.66 18.37-41.04 41.04-41.04 22.66 0 41.04 18.38 41.04 41.04z" stroke="#333" stroke-width="3" fill="#fff"/><g><path d="M232.64 877.62c-2.27 0-4.1-1.84-4.1-4.1V824.6c0-2.45-2-4.43-4.43-4.43-2.44 0-3.54-1.78-2.45-3.97l8.32-16.8c1.48-2.97 3.86-2.97 5.33 0l8.33 16.8c1.1 2.2 0 3.97-2.46 3.97-2.44 0-4.43 1.98-4.43 4.42v48.92c0 2.26-1.83 4.1-4.1 4.1z" stroke="#333" stroke-width="3" fill="#333"/></g><path d="M232.5 794.5l38.1-53.18" stroke="#333" stroke-width="3" fill="none"/><path d="M233.75 795.34l-.5.7-1.86-.36-2 2.13-.73-.5 2.64-3.7z" fill="#333"/><path d="M279.78 728.5l-4.54 14.3-7.54-5.4z" stroke="#333" stroke-width="3" fill="#333"/><path d="M233 795.1l131.8-61.8" stroke="#333" stroke-width="3" fill="none"/><path d="M233.5 796.1l-2.1-.42-2.07 2.2-1.05-2.24 4.1-1.93z" fill="#333"/><path d="M379.06 726.6l-10.95 10.26-3.92-8.4z" stroke="#333" stroke-width="3" fill="#333"/><path d="M233.1 795.4l316.38-66.6" stroke="#333" stroke-width="3" fill="none"/><path d="M233.27 796.04l-1.88-.36-1.9 2.02-.5.1-.6-2.93 4.43-.93z" fill="#333"/><path d="M564.9 725.55l-13 7.48-1.9-9.08z" stroke="#333" stroke-width="3" fill="#333"/><defs><path fill="#333" d="M582-215c134 3 229-61 229-188 0-171-173-202-301-252-148-58-249-117-302-179s-79-146-79-251c-2-279 200-439 487-435 159 1 291 39 410 93v288c-107-75-227-134-387-137-128-2-219 48-221 166 0 41 16 74 42 102 40 43 213 104 300 138 211 80 350 191 350 450 0 322-199 450-537 449-170-1-316-43-438-105v-305c132 92 257 161 447 166" id="q"/><path fill="#333" d="M842-559c0-188-62-350-226-350-163 0-225 163-225 350s62 350 225 350c164 0 226-162 226-350zM616 29C289 29 98-219 98-559s191-588 518-588c328 0 519 248 519 588 0 341-191 588-519 588" id="r"/><path fill="#333" d="M854-1331c-91 2-115 25-115 113v98h344v225H739V0H446v-895H174v-225h272v-78c6-287 99-353 396-358h241v225H854" id="s"/><path fill="#333" d="M827 0C501-7 397-66 397-379v-516H111v-225h286v-318h293v318h383v225H690v530c2 106 48 140 158 140h225V0H827" id="t"/><path fill="#333" d="M498-1147c88-2 180 65 192 139 40-85 96-139 209-139 97 0 164 33 201 100s55 205 55 416V0H915v-719c0-83-8-138-19-167-21-56-118-55-139 1-11 29-20 84-20 166V0H500v-719c0-82-9-137-20-166-21-56-118-57-139-1-11 29-19 84-19 167V0H82v-1120h213v116c28-79 103-141 203-143" id="u"/><path fill="#333" d="M573-174c177-3 250-155 244-352H700c-189 5-288 22-294 186-4 100 66 168 167 166zm41-973c376 0 494 126 494 508V0H817v-125C754-35 643 28 498 29 250 32 90-110 94-354c5-293 200-382 520-383h203c15-144-66-195-203-193-171 2-284 44-409 111v-250c121-50 246-78 409-78" id="v"/><path fill="#333" d="M1145-1120L768-584 1178 0H836L616-377 397 0H55l414-584-381-536h342l186 334 187-334h342" id="w"/><g id="b"><use transform="matrix(0.013020833333333322,0,0,0.013020833333333322,0,0)" xlink:href="#q"/><use transform="matrix(0.013020833333333322,0,0,0.013020833333333322,16.054687499999986,0)" xlink:href="#r"/><use transform="matrix(0.013020833333333322,0,0,0.013020833333333322,32.10937499999997,0)" xlink:href="#s"/><use transform="matrix(0.013020833333333322,0,0,0.013020833333333322,48.16406249999996,0)" xlink:href="#t"/><use transform="matrix(0.013020833333333322,0,0,0.013020833333333322,64.21874999999994,0)" xlink:href="#u"/><use transform="matrix(0.013020833333333322,0,0,0.013020833333333322,80.27343749999993,0)" xlink:href="#v"/><use transform="matrix(0.013020833333333322,0,0,0.013020833333333322,96.32812499999991,0)" xlink:href="#w"/></g><path d="M319-222L242 5h-10l-61-162L108 5h-9L21-222l-21-4v-10h90v10l-34 4 56 166 63-163h8l61 163 54-166-37-4v-10h78v10" id="x"/><path d="M32-163c41-10 102-14 102 39v112c8 3 24-2 21 12h-45l-4-17C83 13 3 13 13-46c-2-50 45-50 92-51 4-36-5-70-42-56-6 2-12 4-16 6-4 7 0 23-15 20v-36zM42-47c0 41 41 33 63 22v-59c-34 1-63-1-63 37" id="y"/><path d="M57-145c16-10 35-24 60-25v45c-19 1-8-30-40-17l-20 6v124l29 4v8H7v-8l21-4v-141c-8-3-24 2-21-12h48" id="z"/><path d="M41-130c7 48 86 23 86 84 0 56-69 57-112 41v-40c20 0 9 29 31 31 35 19 77-26 41-50-27-18-72-13-72-59 0-50 58-52 100-41v36c-19 1-8-25-28-25-21-7-50-1-46 23" id="A"/><path d="M54-38c-1 25 24 26 44 20v12C71 10 25 9 25-35v-115H4c-2-14 14-10 21-15l18-38h11v38h38v15H54v112" id="B"/><path d="M240-154L185 4h-14l-41-109L90 4H77L20-153c-7-3-23 1-20-12h79v8l-27 4L91-41l40-108h14l40 109 38-113-28-4v-8h63v8" id="C"/><g id="c"><use transform="matrix(0.06790123456790119,0,0,0.06790123456790119,0,0)" xlink:href="#x"/><use transform="matrix(0.06790123456790119,0,0,0.06790123456790119,21.04938271604937,0)" xlink:href="#y"/><use transform="matrix(0.06790123456790119,0,0,0.06790123456790119,31.845679012345652,0)" xlink:href="#z"/><use transform="matrix(0.06790123456790119,0,0,0.06790123456790119,39.9259259259259,0)" xlink:href="#A"/><use transform="matrix(0.06790123456790119,0,0,0.06790123456790119,49.43209876543206,0)" xlink:href="#B"/><use transform="matrix(0.06790123456790119,0,0,0.06790123456790119,56.22222222222218,0)" xlink:href="#C"/><use transform="matrix(0.06790123456790119,0,0,0.06790123456790119,73.80864197530859,0)" xlink:href="#y"/></g><path d="M161-154L85 37C75 66 49 86 8 75V39c18-2 6 24 29 21 30-4 38-32 47-58L21-153c-7-3-20 0-17-12h77v8l-26 4 45 116 43-116-26-4v-8h62v8" id="D"/><path d="M50-238c28 0 22 38 0 38-10-2-19-7-19-19s7-18 19-19zM3 58c24 15 35-10 35-42v-169l-25-4v-8h54V7c4 51-28 81-77 66V38C3 36-1 51 3 58" id="E"/><path d="M41-130c7 48 86 23 86 84 0 56-69 57-112 41v-40c20 0 9 29 31 31 35 19 77-26 41-50-27-18-72-13-72-59 0-50 58-52 100-41v36c-19 1-8-25-28-25-21-7-50-1-46 23zm21-67c-5 0-12 2-10-5l35-48h37v6" id="F"/><path d="M45-84c0 64 52 80 104 63 1 25-30 25-55 25-56 0-80-32-80-88 0-76 62-98 131-80v46h-10c-5-15-4-31-23-35-47-10-67 21-67 69" id="G"/><path d="M47-200c-23 0-25-39 0-38 13 0 18 7 20 19-1 11-8 19-20 19zM65-12l28 4v8H8v-8l28-4v-141l-24-4v-8h53v153" id="H"/><path d="M90-170c52 0 76 32 76 87 0 54-24 87-77 87-51 0-75-34-75-87 0-54 24-87 76-87zM89-10c39 0 46-35 46-73 0-39-7-73-46-73-39 1-44 34-44 73s6 72 44 73" id="I"/><g id="d"><use transform="matrix(0.06790123456790119,0,0,0.06790123456790119,0,0)" xlink:href="#C"/><use transform="matrix(0.06790123456790119,0,0,0.06790123456790119,17.586419753086407,0)" xlink:href="#D"/><use transform="matrix(0.06790123456790119,0,0,0.06790123456790119,29.80864197530862,0)" xlink:href="#E"/><use transform="matrix(0.06790123456790119,0,0,0.06790123456790119,36.59876543209874,0)" xlink:href="#F"/><use transform="matrix(0.06790123456790119,0,0,0.06790123456790119,46.10493827160491,0)" xlink:href="#G"/><use transform="matrix(0.06790123456790119,0,0,0.06790123456790119,56.9012345679012,0)" xlink:href="#H"/><use transform="matrix(0.06790123456790119,0,0,0.06790123456790119,63.69135802469132,0)" xlink:href="#I"/><use transform="matrix(0.06790123456790119,0,0,0.06790123456790119,75.91358024691354,0)" xlink:href="#C"/><use transform="matrix(0.06790123456790119,0,0,0.06790123456790119,93.49999999999994,0)" xlink:href="#y"/></g><path d="M10 0v-8l90-143c-23 2-54-4-70 6-5 8 1 26-14 24v-44h122v8L47-14c29-2 65 3 86-8l9-35h8l-5 57H10" id="J"/><use transform="matrix(0.06790123456790119,0,0,0.06790123456790119,0,0)" xlink:href="#J" id="e"/><path d="M103-236c-39-15-35 32-34 71h44v15H69v136l35 6v8H15v-8l25-6v-136H11v-9l29-7c-6-59 23-100 80-84v36c-15 2-12-14-17-22" id="K"/><path d="M124-13C89 8 26 15 26-45v-108c-8-3-24 2-21-12h50v118c-3 37 42 32 69 25v-131l-25-4v-8h54v153c8 3 24-2 21 12h-48" id="L"/><path d="M125-118c4-37-41-34-68-26v132l23 4v8H8C5-13 21-9 28-12v-141c-7-3-23 1-20-12h47l2 13c31-23 98-29 98 31v109c7 3 23-1 20 12h-72v-8l22-4v-106" id="M"/><path d="M60-80l68-73c-7-3-20 0-17-12h58c3 13-13 9-20 12l-47 48 60 93c7 3 21-1 18 12h-68c-3-12 9-9 15-12L82-83 60-60v48c7 3 21-1 18 12H10v-8l21-4v-226l-24-4v-8h53v170" id="N"/><path d="M32-163c41-10 102-14 102 39v112c8 3 24-2 21 12h-45l-4-17C83 13 3 13 13-46c-2-50 45-50 92-51 4-36-5-70-42-56-6 2-12 4-16 6-4 7 0 23-15 20v-36zM42-47c0 41 41 33 63 22v-59c-34 1-63-1-63 37zm121 99c3 18-16 17-29 19-45 5-51-55-25-74h19c-12 17-16 60 15 58 7 0 15-2 20-3" id="O"/><g id="f"><use transform="matrix(0.06790123456790119,0,0,0.06790123456790119,0,0)" xlink:href="#K"/><use transform="matrix(0.06790123456790119,0,0,0.06790123456790119,8.080246913580241,0)" xlink:href="#L"/><use transform="matrix(0.06790123456790119,0,0,0.06790123456790119,20.302469135802454,0)" xlink:href="#M"/><use transform="matrix(0.06790123456790119,0,0,0.06790123456790119,32.52469135802467,0)" xlink:href="#N"/><use transform="matrix(0.06790123456790119,0,0,0.06790123456790119,44.74691358024688,0)" xlink:href="#G"/><use transform="matrix(0.06790123456790119,0,0,0.06790123456790119,55.54320987654317,0)" xlink:href="#E"/><use transform="matrix(0.06790123456790119,0,0,0.06790123456790119,62.33333333333329,0)" xlink:href="#O"/></g><path d="M126-118c4-37-42-32-68-25v131l24 4v8H8C5-13 21-9 28-12v-141c-7-3-23 1-20-12h48l1 13c22-15 77-30 92 2 32-22 104-36 104 29v109c8 3 24-2 21 12h-75v-8l25-4v-106c3-39-45-31-72-24 7 37 1 88 3 130l25 4v8h-78v-8l24-4v-106" id="P"/><path d="M156-12c7 3 23-1 20 12h-75v-8l22-4-38-58-45 58 23 4v8H3v-8l19-3 55-71-48-71c-7-3-23 1-20-12h75v8l-22 4 32 48 37-48-23-4v-8h59v8l-19 3-46 60" id="Q"/><g id="g"><use transform="matrix(0.06790123456790119,0,0,0.06790123456790119,0,0)" xlink:href="#A"/><use transform="matrix(0.06790123456790119,0,0,0.06790123456790119,9.506172839506167,0)" xlink:href="#I"/><use transform="matrix(0.06790123456790119,0,0,0.06790123456790119,21.72839506172838,0)" xlink:href="#K"/><use transform="matrix(0.06790123456790119,0,0,0.06790123456790119,29.808641975308625,0)" xlink:href="#B"/><use transform="matrix(0.06790123456790119,0,0,0.06790123456790119,36.59876543209874,0)" xlink:href="#P"/><use transform="matrix(0.06790123456790119,0,0,0.06790123456790119,55.61111111111108,0)" xlink:href="#y"/><use transform="matrix(0.06790123456790119,0,0,0.06790123456790119,66.40740740740736,0)" xlink:href="#Q"/></g><path d="M110-14l48 5v9H32v-9l48-5v-192l-48 17v-10l69-39h9v224" id="R"/><path d="M90-239c59 0 76 52 76 120S152 4 89 4C31 4 14-51 14-119c0-67 17-120 76-120zM89-10c45-6 45-58 45-109 0-50 0-101-45-106-45 4-43 57-43 106 0 50-2 104 43 109" id="S"/><g id="h"><use transform="matrix(0.06790123456790119,0,0,0.06790123456790119,0,0)" xlink:href="#R"/><use transform="matrix(0.06790123456790119,0,0,0.06790123456790119,12.222222222222214,0)" xlink:href="#S"/></g><path d="M84-170c49 0 66 33 63 87H46c-8 60 38 80 95 63v10C128-2 108 4 88 4 34 4 14-29 14-84c-1-54 22-86 70-86zm33 73c12-57-57-82-69-24-1 7-2 15-2 24h71" id="T"/><path d="M90-170c52 0 76 32 76 87 0 54-24 87-77 87-51 0-75-34-75-87 0-54 24-87 76-87zM89-10c39 0 46-35 46-73 0-39-7-73-46-73-39 1-44 34-44 73s6 72 44 73zm-8-187c-5 0-12 2-10-5l35-48h37v6" id="U"/><g id="i"><use transform="matrix(0.06790123456790119,0,0,0.06790123456790119,0,0)" xlink:href="#M"/><use transform="matrix(0.06790123456790119,0,0,0.06790123456790119,12.222222222222214,0)" xlink:href="#T"/><use transform="matrix(0.06790123456790119,0,0,0.06790123456790119,23.018518518518505,0)" xlink:href="#L"/><use transform="matrix(0.06790123456790119,0,0,0.06790123456790119,35.24074074074072,0)" xlink:href="#z"/><use transform="matrix(0.06790123456790119,0,0,0.06790123456790119,43.32098765432096,0)" xlink:href="#I"/><use transform="matrix(0.06790123456790119,0,0,0.06790123456790119,55.54320987654317,0)" xlink:href="#M"/><use transform="matrix(0.06790123456790119,0,0,0.06790123456790119,67.76543209876539,0)" xlink:href="#U"/><use transform="matrix(0.06790123456790119,0,0,0.06790123456790119,79.9876543209876,0)" xlink:href="#C"/></g><g id="j"><use transform="matrix(0.06790123456790119,0,0,0.06790123456790119,0,0)" xlink:href="#L"/><use transform="matrix(0.06790123456790119,0,0,0.06790123456790119,12.222222222222214,0)" xlink:href="#N"/><use transform="matrix(0.06790123456790119,0,0,0.06790123456790119,24.44444444444443,0)" xlink:href="#z"/><use transform="matrix(0.06790123456790119,0,0,0.06790123456790119,32.52469135802467,0)" xlink:href="#D"/><use transform="matrix(0.06790123456790119,0,0,0.06790123456790119,44.74691358024688,0)" xlink:href="#B"/><use transform="matrix(0.06790123456790119,0,0,0.06790123456790119,51.537037037037,0)" xlink:href="#y"/></g><path d="M199-173c-1 36-21 56-49 65l64 94 26 5v9h-57l-66-103H75v89l35 5v9H13v-9l28-5v-208l-31-4v-10c80 4 190-20 189 63zM75-119c50 2 89-1 89-51 0-49-39-52-89-50v101" id="V"/><path d="M111-226l-36 4v207c33-1 73 2 101-4l11-49h11l-3 68H10v-9l31-5v-208l-31-4v-10h101v10" id="W"/><path d="M134-16c44-1 70-21 70-64v-142l-32-4v-10h80v10l-30 4v141c0 57-33 84-91 85-58 0-93-26-93-82v-144l-30-4v-10h94v10l-30 4c7 82-31 209 62 206" id="X"/><g id="k"><use transform="matrix(0.06790123456790119,0,0,0.06790123456790119,0,0)" xlink:href="#V"/><use transform="matrix(0.06790123456790119,0,0,0.06790123456790119,16.296296296296287,0)" xlink:href="#T"/><use transform="matrix(0.06790123456790119,0,0,0.06790123456790119,27.092592592592574,0)" xlink:href="#W"/><use transform="matrix(0.06790123456790119,0,0,0.06790123456790119,41.96296296296293,0)" xlink:href="#X"/></g><path d="M142-52V0h-30v-52H7v-23l115-162h20v160h32v25h-32zm-30-25l-1-119L27-77h85" id="Y"/><g id="l"><use transform="matrix(0.06790123456790119,0,0,0.06790123456790119,0,0)" xlink:href="#Y"/><use transform="matrix(0.06790123456790119,0,0,0.06790123456790119,12.222222222222214,0)" xlink:href="#S"/></g><path d="M24-231c66-21 156 2 128 81C132-92 78-66 39-27h121V0H16v-26l59-54c26-25 47-47 47-97 0-48-47-57-81-37l-6 29H24v-46" id="Z"/><g id="m"><use transform="matrix(0.06790123456790119,0,0,0.06790123456790119,0,0)" xlink:href="#R"/><use transform="matrix(0.06790123456790119,0,0,0.06790123456790119,12.222222222222214,0)" xlink:href="#Z"/></g><g id="n"><use transform="matrix(0.06790123456790119,0,0,0.06790123456790119,0,0)" xlink:href="#C"/><use transform="matrix(0.06790123456790119,0,0,0.06790123456790119,17.586419753086407,0)" xlink:href="#T"/><use transform="matrix(0.06790123456790119,0,0,0.06790123456790119,28.382716049382694,0)" xlink:href="#E"/><use transform="matrix(0.06790123456790119,0,0,0.06790123456790119,35.172839506172814,0)" xlink:href="#F"/><use transform="matrix(0.06790123456790119,0,0,0.06790123456790119,44.679012345678984,0)" xlink:href="#G"/><use transform="matrix(0.06790123456790119,0,0,0.06790123456790119,55.475308641975275,0)" xlink:href="#H"/><use transform="matrix(0.06790123456790119,0,0,0.06790123456790119,62.265432098765395,0)" xlink:href="#I"/><use transform="matrix(0.06790123456790119,0,0,0.06790123456790119,74.48765432098762,0)" xlink:href="#C"/><use transform="matrix(0.06790123456790119,0,0,0.06790123456790119,92.07407407407402,0)" xlink:href="#y"/></g><path d="M35-180H24v-56h146v14L65 0H42l103-209H41" id="aa"/><path d="M90-239c42 0 69 19 69 61 0 28-14 44-35 53 25 8 42 28 42 61 0 47-28 68-77 68-48 0-75-21-75-68-1-33 18-51 41-61-19-9-34-25-34-53 0-42 26-61 69-61zM89-10c34 0 46-20 46-54 0-32-11-53-46-53-34 0-44 20-44 53-1 34 11 54 44 54zm0-123c28 0 38-16 38-45s-9-47-38-47c-28-1-36 18-36 47s8 45 36 45" id="ab"/><g id="o"><use transform="matrix(0.06790123456790119,0,0,0.06790123456790119,0,0)" xlink:href="#aa"/><use transform="matrix(0.06790123456790119,0,0,0.06790123456790119,12.222222222222214,0)" xlink:href="#ab"/><use transform="matrix(0.06790123456790119,0,0,0.06790123456790119,24.44444444444443,0)" xlink:href="#Y"/></g><path d="M65-12l28 4v8H7v-8l28-4v-226l-28-4v-8h58v238" id="ac"/><g id="p"><use transform="matrix(0.06790123456790119,0,0,0.06790123456790119,0,0)" xlink:href="#T"/><use transform="matrix(0.06790123456790119,0,0,0.06790123456790119,10.796296296296289,0)" xlink:href="#ac"/><use transform="matrix(0.06790123456790119,0,0,0.06790123456790119,17.586419753086407,0)" xlink:href="#T"/><use transform="matrix(0.06790123456790119,0,0,0.06790123456790119,28.382716049382694,0)" xlink:href="#P"/><use transform="matrix(0.06790123456790119,0,0,0.06790123456790119,47.39506172839503,0)" xlink:href="#T"/><use transform="matrix(0.06790123456790119,0,0,0.06790123456790119,58.19135802469132,0)" xlink:href="#M"/><use transform="matrix(0.06790123456790119,0,0,0.06790123456790119,70.41358024691354,0)" xlink:href="#B"/><use transform="matrix(0.06790123456790119,0,0,0.06790123456790119,77.20370370370365,0)" xlink:href="#D"/></g></defs></g></svg>