<svg xmlns="http://www.w3.org/2000/svg" xmlns:xlink="http://www.w3.org/1999/xlink" xmlns:lucid="lucid" width="995" height="874"><g transform="translate(-165 -165)" lucid:page-tab-id="0_0"><path d="M342.38 180H1140v840H342.38z" stroke="#333" stroke-width="3" fill="#fff"/><path d="M1026.05 180H1140v24.28h-113.95z" stroke="#000" stroke-opacity="0" stroke-width="3" fill="#fff" fill-opacity="0"/><use xlink:href="#a" transform="matrix(1,0,0,1,1031.0504401498733,185) translate(0 17.77777777777778)"/><path d="M398.26 252.6H1120V500H398.26z" stroke="#5e5e5e" stroke-width="3" fill="#fff"/><path d="M398.36 252.6H558.3V300H398.37z" stroke="#000" stroke-opacity="0" stroke-width="3" fill-opacity="0"/><use xlink:href="#b" transform="matrix(1,0,0,1,403.3637753997453,257.6098700470022) translate(0 17.77777777777778)"/><use xlink:href="#c" transform="matrix(1,0,0,1,403.3637753997453,257.6098700470022) translate(0 44.44444444444444)"/><use xlink:href="#d" transform="matrix(1,0,0,1,403.3637753997453,257.6098700470022) translate(59.19753086419754 44.44444444444444)"/><path d="M398.36 500H1120v482.86H398.36z" stroke="#5e5e5e" stroke-width="3" fill="#fff"/><path d="M398.36 500.4H558.3V560H398.37z" stroke="#000" stroke-opacity="0" stroke-width="3" fill="#fff" fill-opacity="0"/><use xlink:href="#e" transform="matrix(1,0,0,1,403.3637753997453,505.3921568627454) translate(0 17.77777777777778)"/><use xlink:href="#f" transform="matrix(1,0,0,1,403.3637753997453,505.3921568627454) translate(0 44.44444444444444)"/><use xlink:href="#g" transform="matrix(1,0,0,1,403.3637753997453,505.3921568627454) translate(80.18518518518518 44.44444444444444)"/><path d="M420 580h560v148.17H420z" stroke="#5e5e5e" stroke-width="3" fill="#e5e5e5"/><use xlink:href="#h" transform="matrix(1,0,0,1,425,585) translate(275 74.24652777777777)"/><path d="M420 580h200v40H420z" stroke="#000" stroke-opacity="0" stroke-width="3" fill="#fff" fill-opacity="0"/><use xlink:href="#i" transform="matrix(1,0,0,1,425,585) translate(0 19.71527777777778)"/><use xlink:href="#j" transform="matrix(1,0,0,1,425,585) translate(80.12345679012344 19.71527777777778)"/><g stroke="#000" stroke-opacity="0" stroke-width=".13" fill="#5e5e5e"><path d="M342.95 262.24c.28.5 1.16 1.45 1.95 1.96 1.36.93 1.83 1.02 9.37 1.02 7.13 0 8.04-.1 9.27-.85 1.58-.94 2.05-1.7 2.5-3.92.25-1.28.8-2.13 2.45-3.5 1.16-.93 2.86-2.47 3.75-3.4l1.67-1.62V222.7c0-33.16.35-29.92-3.75-32.98-3.06-2.3-3.32-2.65-4.2-5.37-.38-1.37-1.1-2.65-1.9-3.24-1.28-1.1-1.32-1.1-9.58-1.1-9.3 0-10.26.17-11.43 2.73-.6 1.28-.7 5.2-.7 39.97 0 29.9.14 38.68.58 39.54zm4.13-77.55c.76-.78 1.4-.87 7.16-.87 7.2 0 7.28 0 8.17 3.4.5 1.97 2.6 4.36 6.1 6.92l1.57 1.2-.1 27.35-.12 27.27-3.15 2.64c-3.2 2.73-4.26 4.1-4.3 5.63 0 .5-.37 1.37-.88 2.05l-.85 1.1h-6.4c-5.8 0-6.43-.08-7.2-.85-.84-.85-.84-1.45-.84-37.92 0-36.55 0-37.06.85-37.9z"/><path d="M356.23 252h2.33v-1.44c0-1.1.22-1.53.85-1.7.67-.17.86-.6.86-1.54 0-1.02-.16-1.27-.85-1.27-.65 0-.84-.35-.84-1.54 0-1.18.2-1.44.85-1.44.7 0 .86-.34.86-1.28 0-1.02-.2-1.44-.85-1.6-.56-.2-.84-.6-.84-1.46 0-.94.28-1.37.85-1.54.6-.17.86-.6.86-1.36 0-.85-.25-1.28-.85-1.45-.56-.17-.84-.6-.84-1.45s.28-1.36.85-1.53c.67-.18.86-.52.86-1.55 0-1.02-.16-1.27-.85-1.27-.65 0-.84-.35-.84-1.54 0-1.2.2-1.45.85-1.45.7 0 .86-.35.86-1.37 0-.94-.2-1.36-.85-1.45-.56-.26-.84-.6-.84-1.53 0-.94.28-1.37.85-1.54.6-.16.86-.58.86-1.44 0-.93-.25-1.36-.85-1.53-.56-.17-.84-.6-.84-1.36 0-.77.28-1.28.85-1.37.67-.25.86-.68.86-1.53 0-1.1-.16-1.36-.85-1.36-.65 0-.84-.34-.84-1.44 0-1.1.22-1.54.85-1.7.6-.1.86-.6.86-1.37 0-.78-.25-1.2-.85-1.37-.62-.18-.84-.6-.84-1.62 0-1.2.2-1.44.85-1.44.7 0 .86-.34.86-1.37 0-.94-.2-1.37-.85-1.54-.56-.17-.84-.6-.84-1.36 0-.86.28-1.28.85-1.45.6-.17.86-.6.86-1.45 0-1.1-.2-1.28-1.3-1.54-.72-.17-1.88-.25-2.58-.25-1.13 0-1.23.1-1.23 1.7 0 1.2-.15 1.72-.63 1.72-.4 0-.63.42-.63 1.28 0 .85.2 1.27.62 1.27.44 0 .63.43.63 1.45 0 1.1-.2 1.54-.63 1.54-.4 0-.63.42-.63 1.53 0 .93.2 1.44.62 1.44.44 0 .63.43.63 1.45 0 1-.2 1.52-.63 1.52-.4 0-.63.43-.63 1.45s.2 1.54.62 1.54c.44 0 .63.43.63 1.54 0 .94-.2 1.45-.63 1.45-.4 0-.63.4-.63 1.27 0 .76.24 1.36.62 1.53.38.17.63.77.63 1.45 0 .85-.2 1.28-.63 1.28-.4 0-.63.42-.63 1.45 0 1.1.2 1.53.62 1.53.44 0 .63.44.63 1.46s-.2 1.53-.63 1.53c-.4 0-.63.42-.63 1.44s.2 1.54.62 1.54c.44 0 .63.42.63 1.44 0 1.1-.2 1.54-.63 1.54-.4 0-.63.5-.63 1.45 0 1.03.2 1.54.62 1.54.44 0 .63.43.63 1.28 0 .85-.2 1.28-.63 1.28-.4 0-.63.42-.63 1.45 0 1.02.2 1.53.62 1.53.44 0 .63.43.63 1.53 0 .95-.2 1.46-.63 1.46-.4 0-.63.43-.63 1.45 0 1.03.2 1.55.62 1.55.44 0 .63.42.63 1.44s-.2 1.53-.63 1.53c-.4 0-.63.42-.63 1.45V252h2.33z"/></g><path d="M180 192.6h122.38v60H180z" stroke="#5e5e5e" stroke-width="3" fill="#fff"/><use xlink:href="#k" transform="matrix(1,0,0,1,185,197.60987004700212) translate(18.413580246913575 17.77777777777778)"/><use xlink:href="#l" transform="matrix(1,0,0,1,185,197.60987004700212) translate(28.19753086419753 44.44444444444444)"/><path d="M180 831.2h122.38v102.43H180z" stroke="#5e5e5e" stroke-width="3" fill="#fff"/><use xlink:href="#m" transform="matrix(1,0,0,1,185,836.2059571955042) translate(25.111111111111114 23.59027777777778)"/><use xlink:href="#n" transform="matrix(1,0,0,1,185,836.2059571955042) translate(33.69135802469136 50.25694444444445)"/><use xlink:href="#o" transform="matrix(1,0,0,1,185,836.2059571955042) translate(25.759259259259263 76.92361111111111)"/><path d="M440 852.42h100.56v60H440z" stroke="#5e5e5e" stroke-width="3" fill="#ccc"/><use xlink:href="#p" transform="matrix(1,0,0,1,452,864.4166666666667) translate(15.691358024691361 22.27777777777778)"/><path d="M440.06 620h100.5v73.33h-100.5z" stroke="#5e5e5e" stroke-width="2" fill="#fff"/><use xlink:href="#q" transform="matrix(1,0,0,1,452.06105502461173,632) translate(11.987654320987655 17.77777777777778)"/><use xlink:href="#r" transform="matrix(1,0,0,1,452.06105502461173,632) translate(9.549382716049386 44.44444444444444)"/><path d="M960 780h140v87.58H960z" stroke="#5e5e5e" stroke-width="3" fill="#ccc"/><use xlink:href="#s" transform="matrix(1,0,0,1,965,785) translate(40.370370370370374 29.96527777777778)"/><use xlink:href="#t" transform="matrix(1,0,0,1,965,785) translate(8.919753086419746 56.63194444444445)"/><path d="M810.05 307.5h241.12v160H810.05z" fill="#e5e5e5"/><path d="M830.14 307.5h20.1m10.04 0h20.1m10.04 0h20.1m10.04 0h20.1m10.04 0h20.1m10.04 0h20.1m10.05 0h20.08m10.05 0h10.04v10.67m0 10.66v21.34m0 10.66v21.34m0 10.66v21.34m0 10.66v21.34m0 10.66v10.67h-10.04m-10.05 0h-20.1m-10.04 0h-20.1m-10.04 0h-20.1m-10.04 0h-20.1m-10.04 0h-20.1m-10.04 0h-20.1m-10.04 0h-20.1m-10.04 0h-10.05v-10.67m0-10.66v-21.34m0-10.66v-21.34m0-10.66v-21.34m0-10.66v-21.34m0-10.66V307.5h10.05" stroke="#5e5e5e" stroke-width="2" fill="none"/><path d="M869.5 369.17h160v60h-160z" stroke="#5e5e5e" stroke-width="2" fill="#ccc"/><use xlink:href="#u" transform="matrix(1,0,0,1,881.4867815777491,381.16666666666714) translate(24.296296296296298 22.27777777777778)"/><use xlink:href="#v" transform="matrix(1,0,0,1,881.4867815777491,381.16666666666714) translate(87.07407407407408 22.27777777777778)"/><path d="M810.05 305.83h220v63.34h-220z" stroke="#000" stroke-opacity="0" stroke-width="2" fill="#fff" fill-opacity="0"/><use xlink:href="#w" transform="matrix(1,0,0,1,815.0487667994239,310.8333333333338) translate(0 19.375)"/><use xlink:href="#x" transform="matrix(1,0,0,1,815.0487667994239,310.8333333333338) translate(0 43.37499999999999)"/><path d="M541.04 306.67h241.12v160H541.04z" fill="#e5e5e5"/><path d="M561.13 306.67h20.1m10.04 0h20.1m10.04 0h20.1m10.05 0h20.1m10.04 0h20.1m10.03 0h20.1m10.04 0h20.1m10.05 0h10.04v10.66m0 10.67v21.33m0 10.67v21.33m0 10.67v21.33m0 10.67v21.33m0 10.67v10.67h-10.04m-10.05 0h-20.1m-10.04 0h-20.1m-10.04 0h-20.1m-10.05 0h-20.1m-10.04 0h-20.1m-10.03 0h-20.1m-10.04 0h-20.1m-10.05 0h-10.04V456m0-10.67V424m0-10.67V392m0-10.67V360m0-10.67V328m0-10.67v-10.66h10.04" stroke="#5e5e5e" stroke-width="2" fill="none"/><path d="M595.23 360.5h132.74v77.33H595.23z" stroke="#5e5e5e" stroke-width="2" fill="#ccc"/><use xlink:href="#y" transform="matrix(1,0,0,1,607.2272120692028,372.50000000000045) translate(8.26543209876543 31.27777777777778)"/><path d="M542.16 305.83h138.7v63.34h-138.7z" stroke="#000" stroke-opacity="0" stroke-width="2" fill="#fff" fill-opacity="0"/><use xlink:href="#z" transform="matrix(1,0,0,1,547.1619852216747,310.8333333333338) translate(0 19.375)"/><use xlink:href="#x" transform="matrix(1,0,0,1,547.1619852216747,310.8333333333338) translate(0 43.37499999999999)"/><path d="M1007.06 366.67V222.6H394.54" stroke="#000" stroke-width="3" fill="none"/><path d="M1008.56 368.17h-3v-1.54h3z"/><path d="M378.77 222.6l14.27-4.63v9.28z" stroke="#000" stroke-width="3"/><path d="M348.35 924.83c-3.3 0-5.97-2.54-5.97-5.68v-73.47c0-3.13 2.68-5.68 5.97-5.68h26.32c3.3 0 5.97 2.55 5.97 5.68v73.47c0 3.14-2.68 5.68-5.97 5.68h-26.32z" stroke="#5e5e5e" stroke-width="3.93" fill-opacity="0"/><path d="M349.15 920.93c-1.72 0-3.1-1.36-3.1-3.14v-70.84c0-1.7 1.38-3.06 3.1-3.06h24.7c1.74 0 3.1 1.36 3.1 3.06v70.83c0 1.7-1.36 3.13-3.1 3.13h-24.7z" stroke="#5e5e5e" stroke-width="2.62" fill-opacity="0"/><path d="M373.56 849v66.84H359.9V849h13.66z" stroke="#5e5e5e" stroke-width="2.62" fill="#fff"/><path d="M360.1 857.65v8.82h-6.32v-8.82h6.3zM360.1 871.22v8.82h-6.32v-8.82h6.3zM360.1 884.8v8.8h-6.32v-8.8h6.3zM360.1 898.37v8.73h-6.32v-8.73h6.3z" stroke="#000" stroke-opacity="0" stroke-width="5.24"/><path d="M340.88 222.6H324.5" stroke="#000" stroke-width="3" fill="none"/><path d="M342.38 222.7l.02 1.4h-1.56v-3h1.55z"/><path d="M308.73 222.6l14.27-4.63v9.28z" stroke="#000" stroke-width="3"/><path d="M305.38 882.42h14.42" stroke="#000" stroke-width="3" fill="none"/><path d="M305.42 883.92h-1.54v-3h1.54z"/><path d="M335.56 882.42l-14.26 4.63v-9.27z" stroke="#000" stroke-width="3"/><path d="M384.1 882.42h33.78" stroke="#000" stroke-width="3" fill="none"/><path d="M384.14 883.92h-1.54v-3h1.54z"/><path d="M433.65 882.42l-14.27 4.63v-9.27z" stroke="#000" stroke-width="3"/><path d="M907.05 617.5V450.8" stroke="#000" stroke-width="3" fill="none"/><path d="M908.55 619h-3v-1.54h3z"/><path d="M907.05 435.02l4.63 14.27h-9.27z" stroke="#000" stroke-width="3"/><path d="M697 440.33v158.05" stroke="#000" stroke-width="3" fill="none"/><path d="M698.5 440.37h-3v-1.54h3z"/><path d="M697 614.15l-4.62-14.27h9.27z" stroke="#000" stroke-width="3"/><path d="M558.3 620H658.9v73.33H558.3z" stroke="#5e5e5e" stroke-width="2" fill="#fff"/><use xlink:href="#q" transform="matrix(1,0,0,1,570.3140443349755,632) translate(11.987654320987655 17.77777777777778)"/><use xlink:href="#r" transform="matrix(1,0,0,1,570.3140443349755,632) translate(9.549382716049386 44.44444444444444)"/><path d="M680.87 620h100.57v73.33H680.87z" stroke="#5e5e5e" stroke-width="2" fill="#fff"/><use xlink:href="#q" transform="matrix(1,0,0,1,692.8735053448181,632) translate(11.987654320987655 17.77777777777778)"/><use xlink:href="#r" transform="matrix(1,0,0,1,692.8735053448181,632) translate(9.549382716049386 44.44444444444444)"/><path d="M810.73 620H960v73.33H810.73z" stroke="#5e5e5e" stroke-width="2" fill="#fff"/><use xlink:href="#A" transform="matrix(1,0,0,1,822.728642281148,632) translate(4.450617283950621 17.77777777777778)"/><use xlink:href="#B" transform="matrix(1,0,0,1,822.728642281148,632) translate(63.64814814814815 17.77777777777778)"/><use xlink:href="#C" transform="matrix(1,0,0,1,822.728642281148,632) translate(27.845679012345677 44.44444444444444)"/><use xlink:href="#D" transform="matrix(1,0,0,1,822.728642281148,632) translate(40.191358024691354 44.44444444444444)"/><path d="M525.86 695.83V823.8h412.02" stroke="#000" stroke-width="3" fill="none"/><path d="M527.36 695.87h-3v-1.54h3z"/><path d="M953.65 823.8l-14.27 4.63v-9.27z" stroke="#000" stroke-width="3"/><path d="M458.76 849.42V714.95" stroke="#000" stroke-width="3" fill="none"/><path d="M460.26 850.92h-3v-1.54h3z"/><path d="M458.76 699.2l4.63 14.25h-9.28z" stroke="#000" stroke-width="3"/><path d="M957 797.45H573.24v-82.5" stroke="#000" stroke-width="3" fill="none"/><path d="M958.5 798.95h-1.54v-3h1.54z"/><path d="M573.24 699.2l4.64 14.25h-9.27z" stroke="#000" stroke-width="3"/><path d="M760.54 695.83v63.23h.05v33.4c-2.77 0-5 2.22-5 5 0 2.75 2.23 5 5 5v19.83" stroke="#000" stroke-width="3" fill="none"/><path d="M762.04 695.87h-3v-1.54h3z"/><path d="M760.6 822.25v1.54M838.72 795.95v-81M838.72 795.9v1.55" stroke="#000" stroke-width="3" fill="none"/><path d="M838.72 699.2l4.64 14.25h-9.27z" stroke="#000" stroke-width="3"/><path d="M1030 777V530.67H607.3" stroke="#c92d39" stroke-width="3" fill="none"/><path d="M1031.5 778.5h-3v-1.54h3z" fill="#c92d39"/><path d="M591.52 530.67l14.27-4.64v9.27z" stroke="#c92d39" stroke-width="3" fill="#c92d39"/><path d="M638.25 617.5V459.45" stroke="#000" stroke-width="3" fill="none"/><path d="M639.75 619h-3v-1.54h3z"/><path d="M638.25 443.7l4.63 14.25h-9.27z" stroke="#000" stroke-width="3"/><path d="M722.6 529.17v-69.72M722.6 529.13v1.54" stroke="#c92d39" stroke-width="3" fill="none"/><path d="M722.6 443.7l4.65 14.25h-9.27z" stroke="#c92d39" stroke-width="3" fill="#c92d39"/><path d="M988.68 529.17V450.8M988.68 529.13v1.54" stroke="#c92d39" stroke-width="3" fill="none"/><path d="M988.68 435.02l4.63 14.27h-9.26z" stroke="#c92d39" stroke-width="3" fill="#c92d39"/><path d="M1030 870.58v11.84H562.68" stroke="#c92d39" stroke-width="3" fill="none"/><path d="M1031.5 870.62h-3v-1.54h3z" fill="#c92d39"/><path d="M546.92 882.42l14.26-4.64v9.27z" stroke="#c92d39" stroke-width="3" fill="#c92d39"/><defs><path d="M209 0H11v-25l151-195H24v-28h176v25L50-27h159V0" id="E"/><path d="M212-179c-10-28-35-45-73-45-59 0-87 40-87 99 0 60 29 101 89 101 43 0 62-24 78-52l27 14C228-24 195 4 139 4 59 4 22-46 18-125c-6-104 99-153 187-111 19 9 31 26 39 46" id="F"/><path d="M232-93c-1 65-40 97-104 97C67 4 28-28 28-90v-158h33c8 89-33 224 67 224 102 0 64-133 71-224h33v155" id="G"/><path d="M27 0v-27h64v-190l-56 39v-29l58-41h29v221h61V0H27" id="H"/><path d="M101-251c68 0 85 55 85 127S166 4 100 4C33 4 14-52 14-124c0-73 17-127 87-127zm-1 229c47 0 54-49 54-102s-4-102-53-102c-51 0-55 48-55 102 0 53 5 102 54 102" id="I"/><path d="M155-56V0h-30v-56H8v-25l114-167h33v167h35v25h-35zm-30-156c-27 46-58 90-88 131h88v-131" id="J"/><g id="a"><use transform="matrix(0.06172839506172839,0,0,0.06172839506172839,0,0)" xlink:href="#E"/><use transform="matrix(0.06172839506172839,0,0,0.06172839506172839,13.518518518518517,0)" xlink:href="#F"/><use transform="matrix(0.06172839506172839,0,0,0.06172839506172839,29.50617283950617,0)" xlink:href="#G"/><use transform="matrix(0.06172839506172839,0,0,0.06172839506172839,45.49382716049382,0)" xlink:href="#H"/><use transform="matrix(0.06172839506172839,0,0,0.06172839506172839,57.8395061728395,0)" xlink:href="#I"/><use transform="matrix(0.06172839506172839,0,0,0.06172839506172839,70.18518518518518,0)" xlink:href="#J"/></g><path d="M30-248c87 1 191-15 191 75 0 78-77 80-158 76V0H30v-248zm33 125c57 0 124 11 124-50 0-59-68-47-124-48v98" id="K"/><path d="M114-163C36-179 61-72 57 0H25l-1-190h30c1 12-1 29 2 39 6-27 23-49 58-41v29" id="L"/><path d="M100-194c62-1 85 37 85 99 1 63-27 99-86 99S16-35 15-95c0-66 28-99 85-99zM99-20c44 1 53-31 53-75 0-43-8-75-51-75s-53 32-53 75 10 74 51 75" id="M"/><path d="M177-190C167-65 218 103 67 71c-23-6-38-20-44-43l32-5c15 47 100 32 89-28v-30C133-14 115 1 83 1 29 1 15-40 15-95c0-56 16-97 71-98 29-1 48 16 59 35 1-10 0-23 2-32h30zM94-22c36 0 50-32 50-73 0-42-14-75-50-75-39 0-46 34-46 75s6 73 46 73" id="N"/><path d="M141-36C126-15 110 5 73 4 37 3 15-17 15-53c-1-64 63-63 125-63 3-35-9-54-41-54-24 1-41 7-42 31l-33-3c5-37 33-52 76-52 45 0 72 20 72 64v82c-1 20 7 32 28 27v20c-31 9-61-2-59-35zM48-53c0 20 12 33 32 33 41-3 63-29 60-74-43 2-92-5-92 41" id="O"/><path d="M210-169c-67 3-38 105-44 169h-31v-121c0-29-5-50-35-48C34-165 62-65 56 0H25l-1-190h30c1 10-1 24 2 32 10-44 99-50 107 0 11-21 27-35 58-36 85-2 47 119 55 194h-31v-121c0-29-5-49-35-48" id="P"/><path d="M115-194c53 0 69 39 70 98 0 66-23 100-70 100C84 3 66-7 56-30L54 0H23l1-261h32v101c10-23 28-34 59-34zm-8 174c40 0 45-34 45-75 0-40-5-75-45-74-42 0-51 32-51 76 0 43 10 73 51 73" id="Q"/><path d="M24 0v-261h32V0H24" id="R"/><path d="M100-194c63 0 86 42 84 106H49c0 40 14 67 53 68 26 1 43-12 49-29l28 8c-11 28-37 45-77 45C44 4 14-33 15-96c1-61 26-98 85-98zm52 81c6-60-76-77-97-28-3 7-6 17-6 28h103" id="S"/><g id="b"><use transform="matrix(0.06172839506172839,0,0,0.06172839506172839,0,0)" xlink:href="#K"/><use transform="matrix(0.06172839506172839,0,0,0.06172839506172839,14.814814814814813,0)" xlink:href="#L"/><use transform="matrix(0.06172839506172839,0,0,0.06172839506172839,22.160493827160494,0)" xlink:href="#M"/><use transform="matrix(0.06172839506172839,0,0,0.06172839506172839,34.50617283950617,0)" xlink:href="#N"/><use transform="matrix(0.06172839506172839,0,0,0.06172839506172839,46.85185185185185,0)" xlink:href="#L"/><use transform="matrix(0.06172839506172839,0,0,0.06172839506172839,54.197530864197525,0)" xlink:href="#O"/><use transform="matrix(0.06172839506172839,0,0,0.06172839506172839,66.5432098765432,0)" xlink:href="#P"/><use transform="matrix(0.06172839506172839,0,0,0.06172839506172839,84.99999999999999,0)" xlink:href="#P"/><use transform="matrix(0.06172839506172839,0,0,0.06172839506172839,103.45679012345677,0)" xlink:href="#O"/><use transform="matrix(0.06172839506172839,0,0,0.06172839506172839,115.80246913580245,0)" xlink:href="#Q"/><use transform="matrix(0.06172839506172839,0,0,0.06172839506172839,128.14814814814812,0)" xlink:href="#R"/><use transform="matrix(0.06172839506172839,0,0,0.06172839506172839,133.02469135802465,0)" xlink:href="#S"/></g><path d="M30 0v-248h33v221h125V0H30" id="T"/><path d="M24-231v-30h32v30H24zM24 0v-190h32V0H24" id="U"/><path d="M96-169c-40 0-48 33-48 73s9 75 48 75c24 0 41-14 43-38l32 2c-6 37-31 61-74 61-59 0-76-41-82-99-10-93 101-131 147-64 4 7 5 14 7 22l-32 3c-4-21-16-35-41-35" id="V"/><g id="c"><use transform="matrix(0.06172839506172839,0,0,0.06172839506172839,0,0)" xlink:href="#T"/><use transform="matrix(0.06172839506172839,0,0,0.06172839506172839,12.345679012345679,0)" xlink:href="#M"/><use transform="matrix(0.06172839506172839,0,0,0.06172839506172839,24.691358024691358,0)" xlink:href="#N"/><use transform="matrix(0.06172839506172839,0,0,0.06172839506172839,37.03703703703704,0)" xlink:href="#U"/><use transform="matrix(0.06172839506172839,0,0,0.06172839506172839,41.91358024691358,0)" xlink:href="#V"/></g><path d="M87 75C49 33 22-17 22-94c0-76 28-126 65-167h31c-38 41-64 92-64 168S80 34 118 75H87" id="W"/><path d="M33-261c38 41 65 92 65 168S71 34 33 75H2C39 34 66-17 66-93S39-220 2-261h31" id="X"/><g id="d"><use transform="matrix(0.06172839506172839,0,0,0.06172839506172839,0,0)" xlink:href="#W"/><use transform="matrix(0.06172839506172839,0,0,0.06172839506172839,7.345679012345679,0)" xlink:href="#K"/><use transform="matrix(0.06172839506172839,0,0,0.06172839506172839,22.160493827160494,0)" xlink:href="#T"/><use transform="matrix(0.06172839506172839,0,0,0.06172839506172839,34.50617283950617,0)" xlink:href="#X"/></g><path d="M135-143c-3-34-86-38-87 0 15 53 115 12 119 90S17 21 10-45l28-5c4 36 97 45 98 0-10-56-113-15-118-90-4-57 82-63 122-42 12 7 21 19 24 35" id="Y"/><path d="M117-194c89-4 53 116 60 194h-32v-121c0-31-8-49-39-48C34-167 62-67 57 0H25l-1-190h30c1 10-1 24 2 32 11-22 29-35 61-36" id="Z"/><g id="e"><use transform="matrix(0.06172839506172839,0,0,0.06172839506172839,0,0)" xlink:href="#K"/><use transform="matrix(0.06172839506172839,0,0,0.06172839506172839,14.814814814814813,0)" xlink:href="#L"/><use transform="matrix(0.06172839506172839,0,0,0.06172839506172839,22.160493827160494,0)" xlink:href="#M"/><use transform="matrix(0.06172839506172839,0,0,0.06172839506172839,34.50617283950617,0)" xlink:href="#V"/><use transform="matrix(0.06172839506172839,0,0,0.06172839506172839,45.61728395061728,0)" xlink:href="#S"/><use transform="matrix(0.06172839506172839,0,0,0.06172839506172839,57.962962962962955,0)" xlink:href="#Y"/><use transform="matrix(0.06172839506172839,0,0,0.06172839506172839,69.07407407407406,0)" xlink:href="#Y"/><use transform="matrix(0.06172839506172839,0,0,0.06172839506172839,80.18518518518518,0)" xlink:href="#U"/><use transform="matrix(0.06172839506172839,0,0,0.06172839506172839,85.06172839506172,0)" xlink:href="#Z"/><use transform="matrix(0.06172839506172839,0,0,0.06172839506172839,97.4074074074074,0)" xlink:href="#N"/></g><path d="M185-189c-5-48-123-54-124 2 14 75 158 14 163 119 3 78-121 87-175 55-17-10-28-26-33-46l33-7c5 56 141 63 141-1 0-78-155-14-162-118-5-82 145-84 179-34 5 7 8 16 11 25" id="aa"/><path d="M179-190L93 31C79 59 56 82 12 73V49c39 6 53-20 64-50L1-190h34L92-34l54-156h33" id="ab"/><path d="M59-47c-2 24 18 29 38 22v24C64 9 27 4 27-40v-127H5v-23h24l9-43h21v43h35v23H59v120" id="ac"/><g id="f"><use transform="matrix(0.06172839506172839,0,0,0.06172839506172839,0,0)" xlink:href="#aa"/><use transform="matrix(0.06172839506172839,0,0,0.06172839506172839,14.814814814814813,0)" xlink:href="#ab"/><use transform="matrix(0.06172839506172839,0,0,0.06172839506172839,25.925925925925924,0)" xlink:href="#Y"/><use transform="matrix(0.06172839506172839,0,0,0.06172839506172839,37.03703703703704,0)" xlink:href="#ac"/><use transform="matrix(0.06172839506172839,0,0,0.06172839506172839,43.20987654320988,0)" xlink:href="#S"/><use transform="matrix(0.06172839506172839,0,0,0.06172839506172839,55.55555555555556,0)" xlink:href="#P"/></g><g id="g"><use transform="matrix(0.06172839506172839,0,0,0.06172839506172839,0,0)" xlink:href="#W"/><use transform="matrix(0.06172839506172839,0,0,0.06172839506172839,7.345679012345679,0)" xlink:href="#K"/><use transform="matrix(0.06172839506172839,0,0,0.06172839506172839,22.160493827160494,0)" xlink:href="#aa"/><use transform="matrix(0.06172839506172839,0,0,0.06172839506172839,36.9753086419753,0)" xlink:href="#X"/></g><path d="M100-194c63 0 86 42 84 106H49c0 40 14 67 53 68 26 1 43-12 49-29l28 8c-11 28-37 45-77 45C44 4 14-33 15-96c1-61 26-98 85-98zm52 81c6-60-76-77-97-28-3 7-6 17-6 28h103zM106 40c-1 20 24 18 37 12v18c-24 11-66 4-62-28 3-27 17-46 51-42-13 8-25 19-26 40" id="ad"/><path d="M96-169c-40 0-48 33-48 73s9 75 48 75c24 0 41-14 43-38l32 2c-6 37-31 61-74 61-59 0-76-41-82-99-10-93 101-131 147-64 4 7 5 14 7 22l-32 3c-4-21-16-35-41-35zm-20-42c8-23 27-35 38-54h36v5l-58 49H76" id="ae"/><g id="i"><use transform="matrix(0.06172839506172839,0,0,0.06172839506172839,0,0)" xlink:href="#K"/><use transform="matrix(0.06172839506172839,0,0,0.06172839506172839,14.814814814814813,0)" xlink:href="#O"/><use transform="matrix(0.06172839506172839,0,0,0.06172839506172839,27.160493827160494,0)" xlink:href="#P"/><use transform="matrix(0.06172839506172839,0,0,0.06172839506172839,45.61728395061728,0)" xlink:href="#U"/><use transform="matrix(0.06172839506172839,0,0,0.06172839506172839,50.49382716049382,0)" xlink:href="#ad"/><use transform="matrix(0.06172839506172839,0,0,0.06172839506172839,62.8395061728395,0)" xlink:href="#ae"/></g><path d="M30-248c118-7 216 8 213 122C240-48 200 0 122 0H30v-248zM63-27c89 8 146-16 146-99s-60-101-146-95v194" id="af"/><path d="M233-177c-1 41-23 64-60 70L243 0h-38l-65-103H63V0H30v-248c88 3 205-21 203 71zM63-129c60-2 137 13 137-47 0-61-80-42-137-45v92" id="ag"/><g id="j"><use transform="matrix(0.06172839506172839,0,0,0.06172839506172839,0,0)" xlink:href="#af"/><use transform="matrix(0.06172839506172839,0,0,0.06172839506172839,15.987654320987653,0)" xlink:href="#af"/><use transform="matrix(0.06172839506172839,0,0,0.06172839506172839,31.975308641975307,0)" xlink:href="#ag"/></g><path d="M266 0h-40l-56-210L115 0H75L2-248h35L96-30l15-64 43-154h32l59 218 59-218h35" id="ah"/><path d="M24-231v-30h32v30H24zM-9 49c24 4 33-6 33-30v-209h32V24c2 40-23 58-65 49V49" id="ai"/><path d="M135-143c-3-34-86-38-87 0 15 53 115 12 119 90S17 21 10-45l28-5c4 36 97 45 98 0-10-56-113-15-118-90-4-57 82-63 122-42 12 7 21 19 24 35zm-67-68c8-23 27-35 38-54h36v5l-58 49H68" id="aj"/><g id="k"><use transform="matrix(0.06172839506172839,0,0,0.06172839506172839,0,0)" xlink:href="#ah"/><use transform="matrix(0.06172839506172839,0,0,0.06172839506172839,20.740740740740737,0)" xlink:href="#ab"/><use transform="matrix(0.06172839506172839,0,0,0.06172839506172839,31.85185185185185,0)" xlink:href="#ai"/><use transform="matrix(0.06172839506172839,0,0,0.06172839506172839,36.72839506172839,0)" xlink:href="#aj"/><use transform="matrix(0.06172839506172839,0,0,0.06172839506172839,47.839506172839506,0)" xlink:href="#V"/><use transform="matrix(0.06172839506172839,0,0,0.06172839506172839,58.95061728395062,0)" xlink:href="#U"/><use transform="matrix(0.06172839506172839,0,0,0.06172839506172839,63.82716049382717,0)" xlink:href="#S"/></g><path d="M197 0v-115H63V0H30v-248h33v105h134v-105h34V0h-34" id="ak"/><path d="M240 0l2-218c-23 76-54 145-80 218h-23L58-218 59 0H30v-248h44l77 211c21-75 51-140 76-211h43V0h-30" id="al"/><path d="M33 0v-248h34V0H33" id="am"/><g id="l"><use transform="matrix(0.06172839506172839,0,0,0.06172839506172839,0,0)" xlink:href="#ak"/><use transform="matrix(0.06172839506172839,0,0,0.06172839506172839,15.987654320987653,0)" xlink:href="#af"/><use transform="matrix(0.06172839506172839,0,0,0.06172839506172839,31.975308641975307,0)" xlink:href="#al"/><use transform="matrix(0.06172839506172839,0,0,0.06172839506172839,50.432098765432094,0)" xlink:href="#am"/></g><path d="M86-269c9-18 26-28 38-43h36v5l-54 38H86zM209 0H11v-25l151-195H24v-28h176v25L50-27h159V0" id="an"/><path d="M100-194c62-1 85 37 85 99 1 63-27 99-86 99S16-35 15-95c0-66 28-99 85-99zM99-20c44 1 53-31 53-75 0-43-8-75-51-75s-53 32-53 75 10 74 51 75zM76-211c8-23 27-35 38-54h36v5l-58 49H76" id="ao"/><path d="M85-194c31 0 48 13 60 33l-1-100h32l1 261h-30c-2-10 0-23-3-31C134-8 116 4 85 4 32 4 16-35 15-94c0-66 23-100 70-100zm9 24c-40 0-46 34-46 75 0 40 6 74 45 74 42 0 51-32 51-76 0-42-9-74-50-73" id="ap"/><path d="M24 0v-95L3-83v-28l21-12v-138h32v120l22-13v28l-22 12V0H24" id="aq"/><g id="m"><use transform="matrix(0.06172839506172839,0,0,0.06172839506172839,0,0)" xlink:href="#an"/><use transform="matrix(0.06172839506172839,0,0,0.06172839506172839,13.518518518518517,0)" xlink:href="#L"/><use transform="matrix(0.06172839506172839,0,0,0.06172839506172839,20.864197530864196,0)" xlink:href="#ao"/><use transform="matrix(0.06172839506172839,0,0,0.06172839506172839,33.20987654320987,0)" xlink:href="#ap"/><use transform="matrix(0.06172839506172839,0,0,0.06172839506172839,45.55555555555555,0)" xlink:href="#aq"/><use transform="matrix(0.06172839506172839,0,0,0.06172839506172839,50.432098765432094,0)" xlink:href="#M"/></g><path d="M160-131c35 5 61 23 61 61C221 17 115-2 30 0v-248c76 3 177-17 177 60 0 33-19 50-47 57zm-97-11c50-1 110 9 110-42 0-47-63-36-110-37v79zm0 115c55-2 124 14 124-45 0-56-70-42-124-44v89" id="ar"/><g id="n"><use transform="matrix(0.06172839506172839,0,0,0.06172839506172839,0,0)" xlink:href="#G"/><use transform="matrix(0.06172839506172839,0,0,0.06172839506172839,15.987654320987653,0)" xlink:href="#aa"/><use transform="matrix(0.06172839506172839,0,0,0.06172839506172839,30.80246913580247,0)" xlink:href="#ar"/></g><path d="M137 0h-34L2-248h35l83 218 83-218h36" id="as"/><g id="o"><use transform="matrix(0.06172839506172839,0,0,0.06172839506172839,0,0)" xlink:href="#W"/><use transform="matrix(0.06172839506172839,0,0,0.06172839506172839,7.345679012345679,0)" xlink:href="#G"/><use transform="matrix(0.06172839506172839,0,0,0.06172839506172839,23.333333333333332,0)" xlink:href="#as"/><use transform="matrix(0.06172839506172839,0,0,0.06172839506172839,38.148148148148145,0)" xlink:href="#F"/><use transform="matrix(0.06172839506172839,0,0,0.06172839506172839,54.1358024691358,0)" xlink:href="#X"/></g><g id="p"><use transform="matrix(0.06172839506172839,0,0,0.06172839506172839,0,0)" xlink:href="#G"/><use transform="matrix(0.06172839506172839,0,0,0.06172839506172839,15.987654320987653,0)" xlink:href="#aa"/><use transform="matrix(0.06172839506172839,0,0,0.06172839506172839,30.80246913580247,0)" xlink:href="#ar"/></g><path d="M84 4C-5 8 30-112 23-190h32v120c0 31 7 50 39 49 72-2 45-101 50-169h31l1 190h-30c-1-10 1-25-2-33-11 22-28 36-60 37" id="at"/><path d="M101-234c-31-9-42 10-38 44h38v23H63V0H32v-167H5v-23h27c-7-52 17-82 69-68v24" id="au"/><g id="q"><use transform="matrix(0.06172839506172839,0,0,0.06172839506172839,0,0)" xlink:href="#ar"/><use transform="matrix(0.06172839506172839,0,0,0.06172839506172839,14.814814814814813,0)" xlink:href="#at"/><use transform="matrix(0.06172839506172839,0,0,0.06172839506172839,27.160493827160494,0)" xlink:href="#au"/><use transform="matrix(0.06172839506172839,0,0,0.06172839506172839,33.333333333333336,0)" xlink:href="#M"/><use transform="matrix(0.06172839506172839,0,0,0.06172839506172839,45.67901234567901,0)" xlink:href="#L"/></g><path d="M206 0h-36l-40-164L89 0H53L-1-190h32L70-26l43-164h34l41 164 42-164h31" id="av"/><g id="r"><use transform="matrix(0.06172839506172839,0,0,0.06172839506172839,0,0)" xlink:href="#av"/><use transform="matrix(0.06172839506172839,0,0,0.06172839506172839,15.987654320987653,0)" xlink:href="#U"/><use transform="matrix(0.06172839506172839,0,0,0.06172839506172839,20.864197530864196,0)" xlink:href="#ap"/><use transform="matrix(0.06172839506172839,0,0,0.06172839506172839,33.20987654320987,0)" xlink:href="#S"/><use transform="matrix(0.06172839506172839,0,0,0.06172839506172839,45.55555555555555,0)" xlink:href="#M"/></g><path d="M205 0l-28-72H64L36 0H1l101-248h38L239 0h-34zm-38-99l-47-123c-12 45-31 82-46 123h93" id="aw"/><g id="s"><use transform="matrix(0.06172839506172839,0,0,0.06172839506172839,0,0)" xlink:href="#aw"/><use transform="matrix(0.06172839506172839,0,0,0.06172839506172839,14.814814814814813,0)" xlink:href="#ag"/><use transform="matrix(0.06172839506172839,0,0,0.06172839506172839,30.80246913580247,0)" xlink:href="#al"/></g><path d="M141 0L90-78 38 0H4l68-98-65-92h35l48 74 47-74h35l-64 92 68 98h-35" id="ax"/><path d="M16-82v-28h88v28H16" id="ay"/><path d="M54-142c48-35 137-8 131 61C196 18 31 33 14-55l32-4c7 23 22 37 52 37 35-1 51-22 54-58 4-55-73-65-99-34H22l8-134h141v27H59" id="az"/><path d="M126-127c33 6 58 20 58 59 0 88-139 92-164 29-3-8-5-16-6-25l32-3c6 27 21 44 54 44 32 0 52-15 52-46 0-38-36-46-79-43v-28c39 1 72-4 72-42 0-27-17-43-46-43-28 0-47 15-49 41l-32-3c6-42 35-63 81-64 48-1 79 21 79 65 0 36-21 52-52 59" id="aA"/><g id="t"><use transform="matrix(0.06172839506172839,0,0,0.06172839506172839,0,0)" xlink:href="#F"/><use transform="matrix(0.06172839506172839,0,0,0.06172839506172839,15.987654320987653,0)" xlink:href="#M"/><use transform="matrix(0.06172839506172839,0,0,0.06172839506172839,28.333333333333332,0)" xlink:href="#L"/><use transform="matrix(0.06172839506172839,0,0,0.06172839506172839,35.67901234567901,0)" xlink:href="#ac"/><use transform="matrix(0.06172839506172839,0,0,0.06172839506172839,41.851851851851855,0)" xlink:href="#S"/><use transform="matrix(0.06172839506172839,0,0,0.06172839506172839,54.19753086419753,0)" xlink:href="#ax"/><use transform="matrix(0.06172839506172839,0,0,0.06172839506172839,65.30864197530865,0)" xlink:href="#ay"/><use transform="matrix(0.06172839506172839,0,0,0.06172839506172839,72.65432098765433,0)" xlink:href="#aw"/><use transform="matrix(0.06172839506172839,0,0,0.06172839506172839,87.46913580246914,0)" xlink:href="#az"/><use transform="matrix(0.06172839506172839,0,0,0.06172839506172839,99.81481481481482,0)" xlink:href="#aA"/></g><g id="u"><use transform="matrix(0.06172839506172839,0,0,0.06172839506172839,0,0)" xlink:href="#ak"/><use transform="matrix(0.06172839506172839,0,0,0.06172839506172839,15.987654320987653,0)" xlink:href="#af"/><use transform="matrix(0.06172839506172839,0,0,0.06172839506172839,31.975308641975307,0)" xlink:href="#al"/><use transform="matrix(0.06172839506172839,0,0,0.06172839506172839,50.432098765432094,0)" xlink:href="#am"/></g><path d="M127-220V0H93v-220H8v-28h204v28h-85" id="aB"/><g id="v"><use transform="matrix(0.06172839506172839,0,0,0.06172839506172839,0,0)" xlink:href="#aB"/><use transform="matrix(0.06172839506172839,0,0,0.06172839506172839,13.518518518518517,0)" xlink:href="#ax"/></g><g id="w"><use transform="matrix(0.055555555555555546,0,0,0.055555555555555546,0,0)" xlink:href="#ah"/><use transform="matrix(0.055555555555555546,0,0,0.055555555555555546,18.83333333333333,0)" xlink:href="#Q"/><use transform="matrix(0.055555555555555546,0,0,0.055555555555555546,29.944444444444432,0)" xlink:href="#at"/><use transform="matrix(0.055555555555555546,0,0,0.055555555555555546,41.05555555555554,0)" xlink:href="#ap"/><use transform="matrix(0.055555555555555546,0,0,0.055555555555555546,52.16666666666665,0)" xlink:href="#M"/><use transform="matrix(0.055555555555555546,0,0,0.055555555555555546,63.27777777777776,0)" xlink:href="#av"/><use transform="matrix(0.055555555555555546,0,0,0.055555555555555546,77.66666666666664,0)" xlink:href="#O"/><use transform="matrix(0.055555555555555546,0,0,0.055555555555555546,88.77777777777776,0)" xlink:href="#Z"/><use transform="matrix(0.055555555555555546,0,0,0.055555555555555546,99.88888888888887,0)" xlink:href="#S"/></g><path d="M143 0L79-87 56-68V0H24v-261h32v163l83-92h37l-77 82L181 0h-38" id="aC"/><g id="x"><use transform="matrix(0.055555555555555546,0,0,0.055555555555555546,0,0)" xlink:href="#O"/><use transform="matrix(0.055555555555555546,0,0,0.055555555555555546,11.111111111111109,0)" xlink:href="#aC"/><use transform="matrix(0.055555555555555546,0,0,0.055555555555555546,21.111111111111107,0)" xlink:href="#V"/><use transform="matrix(0.055555555555555546,0,0,0.055555555555555546,31.111111111111107,0)" xlink:href="#S"/><use transform="matrix(0.055555555555555546,0,0,0.055555555555555546,42.222222222222214,0)" xlink:href="#R"/><use transform="matrix(0.055555555555555546,0,0,0.055555555555555546,46.6111111111111,0)" xlink:href="#S"/><use transform="matrix(0.055555555555555546,0,0,0.055555555555555546,57.722222222222214,0)" xlink:href="#L"/><use transform="matrix(0.055555555555555546,0,0,0.055555555555555546,64.33333333333331,0)" xlink:href="#O"/><use transform="matrix(0.055555555555555546,0,0,0.055555555555555546,75.44444444444443,0)" xlink:href="#ac"/><use transform="matrix(0.055555555555555546,0,0,0.055555555555555546,80.99999999999999,0)" xlink:href="#M"/><use transform="matrix(0.055555555555555546,0,0,0.055555555555555546,92.1111111111111,0)" xlink:href="#L"/><use transform="matrix(0.055555555555555546,0,0,0.055555555555555546,98.72222222222221,0)" xlink:href="#ab"/></g><g id="y"><use transform="matrix(0.06172839506172839,0,0,0.06172839506172839,0,0)" xlink:href="#Z"/><use transform="matrix(0.06172839506172839,0,0,0.06172839506172839,12.345679012345679,0)" xlink:href="#S"/><use transform="matrix(0.06172839506172839,0,0,0.06172839506172839,24.691358024691358,0)" xlink:href="#at"/><use transform="matrix(0.06172839506172839,0,0,0.06172839506172839,37.03703703703704,0)" xlink:href="#L"/><use transform="matrix(0.06172839506172839,0,0,0.06172839506172839,44.382716049382715,0)" xlink:href="#O"/><use transform="matrix(0.06172839506172839,0,0,0.06172839506172839,56.72839506172839,0)" xlink:href="#R"/><use transform="matrix(0.06172839506172839,0,0,0.06172839506172839,61.60493827160494,0)" xlink:href="#Z"/><use transform="matrix(0.06172839506172839,0,0,0.06172839506172839,73.95061728395062,0)" xlink:href="#S"/><use transform="matrix(0.06172839506172839,0,0,0.06172839506172839,86.2962962962963,0)" xlink:href="#ac"/></g><g id="z"><use transform="matrix(0.055555555555555546,0,0,0.055555555555555546,0,0)" xlink:href="#ah"/><use transform="matrix(0.055555555555555546,0,0,0.055555555555555546,18.83333333333333,0)" xlink:href="#aq"/><use transform="matrix(0.055555555555555546,0,0,0.055555555555555546,23.222222222222218,0)" xlink:href="#O"/><use transform="matrix(0.055555555555555546,0,0,0.055555555555555546,34.33333333333333,0)" xlink:href="#Y"/><use transform="matrix(0.055555555555555546,0,0,0.055555555555555546,44.33333333333333,0)" xlink:href="#Z"/><use transform="matrix(0.055555555555555546,0,0,0.055555555555555546,55.444444444444436,0)" xlink:href="#S"/></g><g id="A"><use transform="matrix(0.06172839506172839,0,0,0.06172839506172839,0,0)" xlink:href="#ar"/><use transform="matrix(0.06172839506172839,0,0,0.06172839506172839,14.814814814814813,0)" xlink:href="#at"/><use transform="matrix(0.06172839506172839,0,0,0.06172839506172839,27.160493827160494,0)" xlink:href="#au"/><use transform="matrix(0.06172839506172839,0,0,0.06172839506172839,33.333333333333336,0)" xlink:href="#M"/><use transform="matrix(0.06172839506172839,0,0,0.06172839506172839,45.67901234567901,0)" xlink:href="#L"/></g><g id="B"><use transform="matrix(0.06172839506172839,0,0,0.06172839506172839,0,0)" xlink:href="#av"/><use transform="matrix(0.06172839506172839,0,0,0.06172839506172839,15.987654320987653,0)" xlink:href="#U"/><use transform="matrix(0.06172839506172839,0,0,0.06172839506172839,20.864197530864196,0)" xlink:href="#ap"/><use transform="matrix(0.06172839506172839,0,0,0.06172839506172839,33.20987654320987,0)" xlink:href="#S"/><use transform="matrix(0.06172839506172839,0,0,0.06172839506172839,45.55555555555555,0)" xlink:href="#M"/></g><path d="M0 4l72-265h28L28 4H0" id="aD"/><use transform="matrix(0.06172839506172839,0,0,0.06172839506172839,0,0)" xlink:href="#aD" id="C"/><g id="D"><use transform="matrix(0.06172839506172839,0,0,0.06172839506172839,0,0)" xlink:href="#aC"/><use transform="matrix(0.06172839506172839,0,0,0.06172839506172839,11.11111111111111,0)" xlink:href="#R"/><use transform="matrix(0.06172839506172839,0,0,0.06172839506172839,15.987654320987653,0)" xlink:href="#O"/><use transform="matrix(0.06172839506172839,0,0,0.06172839506172839,28.333333333333332,0)" xlink:href="#ac"/><use transform="matrix(0.06172839506172839,0,0,0.06172839506172839,34.50617283950617,0)" xlink:href="#S"/><use transform="matrix(0.06172839506172839,0,0,0.06172839506172839,46.85185185185185,0)" xlink:href="#aC"/></g></defs></g></svg>