<svg xmlns="http://www.w3.org/2000/svg" xmlns:xlink="http://www.w3.org/1999/xlink" xmlns:lucid="lucid" width="1002" height="689"><g transform="translate(-153 -173)" lucid:page-tab-id="0_0"><path d="M226.78 188.02c0-3.3 2.7-6 6-6h336c3.3 0 6 2.7 6 6v48c0 3.32-2.7 6-6 6h-336c-3.3 0-6-2.68-6-6z" fill="none"/><use xlink:href="#a" transform="matrix(1,0,0,1,226.7795275590551,182.02362204724412) translate(13.453125 39.23177083333333)"/><use xlink:href="#b" transform="matrix(1,0,0,1,226.7795275590551,182.02362204724412) translate(174 39.23177083333333)"/><path d="M166.78 489.4c0-3.32 2.7-6 6-6H411.2c3.3 0 6 2.68 6 6v46c0 3.3-2.7 6-6 6H172.78c-3.3 0-6-2.7-6-6z" fill="none"/><use xlink:href="#c" transform="matrix(1,0,0,1,166.7795275590551,483.39028871391076) translate(0 24.752604166666664)"/><use xlink:href="#d" transform="matrix(1,0,0,1,166.7795275590551,483.39028871391076) translate(112.3828125 24.752604166666664)"/><use xlink:href="#e" transform="matrix(1,0,0,1,166.7795275590551,483.39028871391076) translate(0 55.79427083333333)"/><path d="M174.8 809.36c0-3.32 2.7-6 6-6H446.7c3.3 0 6 2.68 6 6v26.66c0 3.32-2.7 6-6 6H180.8c-3.3 0-6-2.68-6-6z" fill="none"/><use xlink:href="#f" transform="matrix(1,0,0,1,174.8057806831261,803.3569553805773) translate(2.53515625 28.731770833333332)"/><use xlink:href="#g" transform="matrix(1,0,0,1,174.8057806831261,803.3569553805773) translate(163.08203125 28.731770833333332)"/><path d="M193.45 397.36h146.7v55.24c-24.5-9.23-39.76-9.23-49-9.23-14.67 0-34.18 9.23-48.85 9.23-9.1 0-24.5 0-48.85-9.23z" stroke="#5e5e5e" stroke-width="3" fill="#fff"/><path d="M180.12 408.4h146.7v55.24c-24.5-9.22-39.76-9.22-49-9.22-14.68 0-34.2 9.22-48.86 9.22-9.1 0-24.5 0-48.84-9.22z" stroke="#5e5e5e" stroke-width="3" fill="#fff"/><path d="M166.78 419.45h146.7v55.24c-24.5-9.23-39.76-9.23-49-9.23-14.67 0-34.18 9.22-48.85 9.22-9.1 0-24.5 0-48.85-9.23z" stroke="#5e5e5e" stroke-width="3" fill="#fff"/><path d="M166.78 345.36c0-3.32 2.7-6 6-6h219.16c3.3 0 6 2.68 6 6v26.66c0 3.32-2.7 6-6 6H172.78c-3.3 0-6-2.68-6-6z" fill="none"/><use xlink:href="#h" transform="matrix(1,0,0,1,166.77952755905514,339.35695538057746) translate(0 28.731770833333332)"/><use xlink:href="#i" transform="matrix(1,0,0,1,166.77952755905514,339.35695538057746) translate(80.2734375 28.731770833333332)"/><path d="M403.3 262.02H166.77v73.46h236.5z" stroke="#333" stroke-width="3" fill="#fff"/><use xlink:href="#j" transform="matrix(1,0,0,1,171.77952755905517,267.0236220472441) translate(0 20.627170138888886)"/><use xlink:href="#k" transform="matrix(1,0,0,1,171.77952755905517,267.0236220472441) translate(107.03124999999999 20.627170138888886)"/><use xlink:href="#l" transform="matrix(1,0,0,1,171.77952755905517,267.0236220472441) translate(0 46.495225694444436)"/><use xlink:href="#m" transform="matrix(1,0,0,1,171.77952755905517,267.0236220472441) translate(66.89453124999999 46.495225694444436)"/><path d="M166.78 635.36c0-3.32 2.7-6 6-6H353.4c3.32 0 6 2.68 6 6v46c0 3.3-2.68 6-6 6H172.8c-3.3 0-6-2.7-6-6z" fill="none"/><use xlink:href="#n" transform="matrix(1,0,0,1,166.7795275590551,629.3569553805773) translate(0.171875 38.23177083333333)"/><use xlink:href="#o" transform="matrix(1,0,0,1,166.7795275590551,629.3569553805773) translate(160.71875 38.23177083333333)"/><path d="M174.8 571.36H351.4v58H174.8zM174.8 706.7H606.8v96.66H174.8z" stroke="#5e5e5e" stroke-width="3" fill="#fff"/><use xlink:href="#p" transform="matrix(1,0,0,1,186.80578068312605,718.6902887139107) translate(0 20.62717013888889)"/><use xlink:href="#q" transform="matrix(1,0,0,1,186.80578068312605,718.6902887139107) translate(0 46.49522569444444)"/><use xlink:href="#r" transform="matrix(1,0,0,1,186.80578068312605,718.6902887139107) translate(0 72.36328125)"/><path d="M452.68 474.7h154.1v116h-154.1z" stroke="#5e5e5e" stroke-width="3" fill="#fff"/><use xlink:href="#s" transform="matrix(1,0,0,1,464.6754675768926,486.69028871391083) translate(1.28125 56.377604166666664)"/><path d="M343.15 425.1h74.05v80.5h13.36" stroke="#333" stroke-width="3" fill="none"/><path d="M343.2 426.6h-1.55v-3h1.54z" fill="#333"/><path d="M446.32 505.6l-14.26 4.64v-9.27z" stroke="#333" stroke-width="3" fill="#333"/><path d="M406.3 298.75h123.43v153.82" stroke="#333" stroke-width="3" fill="none"/><path d="M406.32 300.25h-1.53v-3h1.52z" fill="#333"/><path d="M529.73 468.34l-4.64-14.27h9.26z" stroke="#333" stroke-width="3" fill="#333"/><path d="M354.38 600.36h47.65v-35.42h28.53" stroke="#333" stroke-width="3" fill="none"/><path d="M354.42 601.86h-1.54v-3h1.54z" fill="#333"/><path d="M446.32 564.94l-14.26 4.63v-9.27z" stroke="#333" stroke-width="3" fill="#333"/><path d="M529.73 703.7v-90.9" stroke="#333" stroke-width="3" fill="none"/><path d="M531.23 705.2h-3v-1.55h3z" fill="#333"/><path d="M529.73 597.04l4.63 14.27h-9.27z" stroke="#333" stroke-width="3" fill="#333"/><path d="M628.38 201.5v637M628.38 201.54V200M628.38 838.46V840M840 201.5v637M840 201.54V200M840 838.46V840" stroke="#333" stroke-width="3" fill="none"/><path d="M643.9 188.02c0-3.3 2.68-6 6-6h168c3.3 0 6 2.7 6 6v48c0 3.32-2.7 6-6 6h-168c-3.32 0-6-2.68-6-6z" fill="none"/><use xlink:href="#t" transform="matrix(1,0,0,1,643.8897637795276,182.02362204724412) translate(9.7265625 39.23177083333333)"/><path d="M667.78 480.7c0-3.32 2.7-6 6-6H794c3.3 0 6 2.68 6 6v114c-22.08-20.05-35.83-20.05-44.16-20.05-13.22 0-30.8 20.04-44.03 20.04-8.2 0-22.07 0-44.02-20.05z" stroke="#5e5e5e" stroke-width="3" fill="#fff"/><use xlink:href="#u" transform="matrix(1,0,0,1,672.7795275590552,479.69028871391083) translate(5.30859375 52.87760416666667)"/><path d="M609.78 532.7h27.5v-.02h8.38" stroke="#333" stroke-width="3" fill="none"/><path d="M609.82 534.2h-1.54v-3h1.54z" fill="#333"/><path d="M661.43 532.68l-14.27 4.64v-9.27z" stroke="#333" stroke-width="3" fill="#333"/><path d="M920.78 188.02c0-3.3 2.7-6 6-6h168c3.3 0 6 2.7 6 6v48c0 3.32-2.7 6-6 6h-168c-3.3 0-6-2.68-6-6z" fill="none"/><use xlink:href="#v" transform="matrix(1,0,0,1,920.7795275590554,182.02362204724412) translate(25.78125 24.752604166666664)"/><use xlink:href="#b" transform="matrix(1,0,0,1,920.7795275590554,182.02362204724412) translate(9.7265625 55.79427083333333)"/><path d="M1137.16 287.4H884.4v148.4h252.76z" stroke="#333" stroke-width="3" fill="#fff"/><g><use xlink:href="#w" transform="matrix(1,0,0,1,889.4015748031497,292.38856845144966) translate(0 18.564453124999993)"/><use xlink:href="#x" transform="matrix(1,0,0,1,889.4015748031497,292.38856845144966) translate(108.36914062499999 18.564453124999993)"/><use xlink:href="#y" transform="matrix(1,0,0,1,889.4015748031497,292.38856845144966) translate(0 41.845703124999986)"/><use xlink:href="#z" transform="matrix(1,0,0,1,889.4015748031497,292.38856845144966) translate(60.205078124999986 41.845703124999986)"/><use xlink:href="#A" transform="matrix(1,0,0,1,889.4015748031497,292.38856845144966) translate(144.49218749999997 41.845703124999986)"/><use xlink:href="#B" transform="matrix(1,0,0,1,889.4015748031497,292.38856845144966) translate(0 65.12695312499997)"/><use xlink:href="#C" transform="matrix(1,0,0,1,889.4015748031497,292.38856845144966) translate(24.082031249999993 65.12695312499997)"/><use xlink:href="#B" transform="matrix(1,0,0,1,889.4015748031497,292.38856845144966) translate(0 88.40820312499997)"/><use xlink:href="#D" transform="matrix(1,0,0,1,889.4015748031497,292.38856845144966) translate(24.082031249999993 88.40820312499997)"/><use xlink:href="#E" transform="matrix(1,0,0,1,889.4015748031497,292.38856845144966) translate(144.49218749999997 88.40820312499997)"/><use xlink:href="#B" transform="matrix(1,0,0,1,889.4015748031497,292.38856845144966) translate(0 111.68945312499997)"/><use xlink:href="#F" transform="matrix(1,0,0,1,889.4015748031497,292.38856845144966) translate(24.082031249999993 111.68945312499997)"/></g><path d="M884.4 477.27c0-3.3 2.7-6 6-6h240.76c3.3 0 6 2.7 6 6v115.48c0 3.3-2.7 6-6 6H890.4c-3.3 0-6-2.7-6-6z" stroke="#5e5e5e" stroke-width="3" fill="#fff"/><g><use xlink:href="#G" transform="matrix(1,0,0,1,896.4015748031499,483.2733016098048) translate(0 20.62717013888889)"/><use xlink:href="#H" transform="matrix(1,0,0,1,896.4015748031499,483.2733016098048) translate(53.515625 20.62717013888889)"/><use xlink:href="#I" transform="matrix(1,0,0,1,896.4015748031499,483.2733016098048) translate(0 46.49522569444444)"/><use xlink:href="#J" transform="matrix(1,0,0,1,896.4015748031499,483.2733016098048) translate(80.2734375 46.49522569444444)"/><use xlink:href="#K" transform="matrix(1,0,0,1,896.4015748031499,483.2733016098048) translate(0 72.36328125)"/><use xlink:href="#L" transform="matrix(1,0,0,1,896.4015748031499,483.2733016098048) translate(0 98.23133680555556)"/><use xlink:href="#M" transform="matrix(1,0,0,1,896.4015748031499,483.2733016098048) translate(40.13671875 98.23133680555556)"/></g><path d="M803 535h59.28" stroke="#333" stroke-width="3" fill="none"/><path d="M803.04 536.5h-1.54v-3h1.54z" fill="#333"/><path d="M878.05 535l-14.27 4.64v-9.27z" stroke="#333" stroke-width="3" fill="#333"/><path d="M1010.78 438.8v10.35" stroke="#333" stroke-width="3" fill="none"/><path d="M1012.28 438.83h-3v-1.54h3z" fill="#333"/><path d="M1010.78 464.92l-4.64-14.27h9.27z" stroke="#333" stroke-width="3" fill="#333"/><defs><path fill="#333" d="M47-1493h1139v170H719V0H516v-1323H47v-170" id="N"/><path fill="#333" d="M0-1120h182l195 905 160-578h157l162 578 195-905h182L971 0H795L616-614 438 0H262" id="O"/><path fill="#333" d="M616-991c-93 0-161 39-212 109-92 126-92 520 0 646 52 70 119 109 212 109 94 0 161-39 213-109 93-126 92-520 0-646-52-70-119-109-213-109zM137-559c0-353 146-588 479-588s480 235 480 588c0 355-145 588-480 588-334 0-479-234-479-588" id="P"/><path fill="#333" d="M915-1147c102 0 174 26 240 70v188c-71-55-140-88-254-88-243 0-354 165-354 420V0H362v-1120h185v219c55-146 178-246 368-246" id="Q"/><path fill="#333" d="M227-1122h813v168L397-150h643V0H203v-170l643-805H227v-147" id="R"/><path fill="#333" d="M651-1147c298 0 466 229 461 541v90H315c-4 242 129 392 365 389 156-2 268-51 389-113v183C949-8 828 27 678 29c-351 3-555-232-555-588 0-338 200-588 528-588zm277 487c-4-201-91-331-285-331-193 0-305 144-321 332" id="S"/><path fill="#333" d="M711-1147c253 0 340 178 340 453V0H866v-694c-1-183-51-293-219-293-189 0-268 148-268 354V0H195v-1120h184v168c60-118 165-195 332-195" id="T"/><path fill="#333" d="M256-1120h471v977h365V0H178v-143h365v-834H256v-143zm287-436h184v233H543v-233" id="U"/><g id="a"><use transform="matrix(0.013020833333333332,0,0,0.013020833333333332,0,0)" xlink:href="#N"/><use transform="matrix(0.013020833333333332,0,0,0.013020833333333332,16.0546875,0)" xlink:href="#O"/><use transform="matrix(0.013020833333333332,0,0,0.013020833333333332,32.109375,0)" xlink:href="#P"/><use transform="matrix(0.013020833333333332,0,0,0.013020833333333332,48.1640625,0)" xlink:href="#Q"/><use transform="matrix(0.013020833333333332,0,0,0.013020833333333332,64.21875,0)" xlink:href="#R"/><use transform="matrix(0.013020833333333332,0,0,0.013020833333333332,80.2734375,0)" xlink:href="#S"/><use transform="matrix(0.013020833333333332,0,0,0.013020833333333332,96.328125,0)" xlink:href="#T"/><use transform="matrix(0.013020833333333332,0,0,0.013020833333333332,112.38281249999999,0)" xlink:href="#U"/><use transform="matrix(0.013020833333333332,0,0,0.013020833333333332,128.4375,0)" xlink:href="#S"/></g><path fill="#333" d="M850-236c87-126 87-521 0-646-49-70-112-109-201-109s-154 38-203 109c-89 127-89 518 0 645 49 71 114 110 203 110s152-39 201-109zM676 29c-146 0-244-69-299-170V0H193v-1556h184v579c53-101 154-170 301-170 297 0 434 260 434 584 0 329-136 592-436 592" id="V"/><path fill="#333" d="M801 0C570 0 455-164 455-406v-1017H160v-144h479v1161c0 147 46 250 180 250h215V0H801" id="W"/><path fill="#333" d="M807 0C529-4 430-92 430-369v-608H131v-143h299v-318h184v318h418v143H614v608c2 165 49 222 211 222h207V0H807" id="X"/><path fill="#333" d="M236-1556h190v901l483-465h224L692-698 1202 0H977L563-578 426-449V0H236v-1556" id="Y"/><g id="b"><use transform="matrix(0.013020833333333332,0,0,0.013020833333333332,0,0)" xlink:href="#V"/><use transform="matrix(0.013020833333333332,0,0,0.013020833333333332,16.0546875,0)" xlink:href="#U"/><use transform="matrix(0.013020833333333332,0,0,0.013020833333333332,32.109375,0)" xlink:href="#V"/><use transform="matrix(0.013020833333333332,0,0,0.013020833333333332,48.1640625,0)" xlink:href="#W"/><use transform="matrix(0.013020833333333332,0,0,0.013020833333333332,64.21875,0)" xlink:href="#U"/><use transform="matrix(0.013020833333333332,0,0,0.013020833333333332,80.2734375,0)" xlink:href="#P"/><use transform="matrix(0.013020833333333332,0,0,0.013020833333333332,96.328125,0)" xlink:href="#X"/><use transform="matrix(0.013020833333333332,0,0,0.013020833333333332,112.38281249999999,0)" xlink:href="#S"/><use transform="matrix(0.013020833333333332,0,0,0.013020833333333332,128.4375,0)" xlink:href="#Y"/><use transform="matrix(0.013020833333333332,0,0,0.013020833333333332,144.4921875,0)" xlink:href="#U"/></g><path fill="#333" d="M930-1047c0-180-114-280-297-280H399v561h234c182 2 297-102 297-281zm211 0c0 308-189 448-508 447H399V0H197v-1493h436c317-2 508 140 508 446" id="Z"/><path fill="#333" d="M547-125c229-2 340-186 327-438H641c-189 0-321 55-324 225-3 137 91 215 230 213zm-332-944c167-71 431-115 615-37 106 45 186 120 213 246 11 49 16 123 16 221V0H874v-166C800-42 695 26 508 29c-220 3-378-138-375-355 4-274 199-382 494-381h247c6-204-80-285-282-284-149 1-272 46-377 106v-184" id="aa"/><path fill="#333" d="M748-127c144 0 233-46 313-121v191C974-6 875 28 748 29c-351 3-553-232-553-588 0-357 202-591 553-588 129 2 222 35 313 86v193c-88-76-165-123-313-123-245 0-359 174-359 432 0 257 115 432 359 432" id="ab"/><g id="c"><use transform="matrix(0.013020833333333332,0,0,0.013020833333333332,0,0)" xlink:href="#Z"/><use transform="matrix(0.013020833333333332,0,0,0.013020833333333332,16.0546875,0)" xlink:href="#aa"/><use transform="matrix(0.013020833333333332,0,0,0.013020833333333332,32.109375,0)" xlink:href="#ab"/><use transform="matrix(0.013020833333333332,0,0,0.013020833333333332,48.1640625,0)" xlink:href="#R"/><use transform="matrix(0.013020833333333332,0,0,0.013020833333333332,64.21875,0)" xlink:href="#Y"/><use transform="matrix(0.013020833333333332,0,0,0.013020833333333332,80.2734375,0)" xlink:href="#aa"/></g><path fill="#333" d="M201-1493h829v170H717v1153h313V0H201v-170h313v-1153H201v-170" id="ac"/><g id="d"><use transform="matrix(0.013020833333333332,0,0,0.013020833333333332,0,0)" xlink:href="#ac"/><use transform="matrix(0.013020833333333332,0,0,0.013020833333333332,16.0546875,0)" xlink:href="#Z"/></g><path fill="#333" d="M426-643c0-377 131-645 299-911h160c-153 264-264 539-264 911 0 371 112 648 264 913H725C557 0 426-263 426-643" id="ad"/><path fill="#333" d="M471-1147c112 0 171 55 205 141 41-85 99-141 213-141 90 0 154 35 191 105s55 200 55 393V0H967v-641c0-158-12-256-27-295-31-81-176-72-206 4-17 42-29 138-29 291V0H537v-641c0-160-10-259-29-296s-53-56-102-56-83 20-102 61-28 138-28 291V0H109v-1120h167v96c38-70 97-123 195-123" id="ae"/><path fill="#333" d="M674 29c-147 0-246-68-299-170v567H190v-1546h185v143c55-101 152-170 299-170 300 0 434 263 434 592 0 325-137 584-434 584zm174-265c87-125 87-521 0-646-48-70-112-109-201-109s-154 38-203 109c-89 127-89 518 0 645 49 71 114 110 203 110s153-39 201-109" id="af"/><path fill="#333" d="M489-305h252V0H489v-305" id="ag"/><path fill="#333" d="M1118-1120L717-584 1157 0H944L616-449 289 0H76l440-584-401-536h204l297 405 295-405h207" id="ah"/><path fill="#333" d="M612-643c0-370-112-648-264-911h160c168 267 299 533 299 911 0 379-131 646-299 913H348C499 3 612-272 612-643" id="ai"/><g id="e"><use transform="matrix(0.013020833333333332,0,0,0.013020833333333332,0,0)" xlink:href="#ad"/><use transform="matrix(0.013020833333333332,0,0,0.013020833333333332,16.0546875,0)" xlink:href="#ab"/><use transform="matrix(0.013020833333333332,0,0,0.013020833333333332,32.109375,0)" xlink:href="#P"/><use transform="matrix(0.013020833333333332,0,0,0.013020833333333332,48.1640625,0)" xlink:href="#ae"/><use transform="matrix(0.013020833333333332,0,0,0.013020833333333332,64.21875,0)" xlink:href="#af"/><use transform="matrix(0.013020833333333332,0,0,0.013020833333333332,80.2734375,0)" xlink:href="#P"/><use transform="matrix(0.013020833333333332,0,0,0.013020833333333332,96.328125,0)" xlink:href="#T"/><use transform="matrix(0.013020833333333332,0,0,0.013020833333333332,112.38281249999999,0)" xlink:href="#S"/><use transform="matrix(0.013020833333333332,0,0,0.013020833333333332,128.4375,0)" xlink:href="#T"/><use transform="matrix(0.013020833333333332,0,0,0.013020833333333332,144.4921875,0)" xlink:href="#X"/><use transform="matrix(0.013020833333333332,0,0,0.013020833333333332,160.546875,0)" xlink:href="#ag"/><use transform="matrix(0.013020833333333332,0,0,0.013020833333333332,176.6015625,0)" xlink:href="#ah"/><use transform="matrix(0.013020833333333332,0,0,0.013020833333333332,192.65625,0)" xlink:href="#ae"/><use transform="matrix(0.013020833333333332,0,0,0.013020833333333332,208.7109375,0)" xlink:href="#W"/><use transform="matrix(0.013020833333333332,0,0,0.013020833333333332,224.76562499999997,0)" xlink:href="#ai"/></g><path fill="#333" d="M86-1493h270l258 760 260-760h271V0H958v-1319L692-532H539l-267-787V0H86v-1493" id="aj"/><g id="f"><use transform="matrix(0.013020833333333332,0,0,0.013020833333333332,0,0)" xlink:href="#aj"/><use transform="matrix(0.013020833333333332,0,0,0.013020833333333332,16.0546875,0)" xlink:href="#aa"/><use transform="matrix(0.013020833333333332,0,0,0.013020833333333332,32.109375,0)" xlink:href="#af"/><use transform="matrix(0.013020833333333332,0,0,0.013020833333333332,48.1640625,0)" xlink:href="#P"/><use transform="matrix(0.013020833333333332,0,0,0.013020833333333332,64.21875,0)" xlink:href="#O"/><use transform="matrix(0.013020833333333332,0,0,0.013020833333333332,80.2734375,0)" xlink:href="#aa"/><use transform="matrix(0.013020833333333332,0,0,0.013020833333333332,96.328125,0)" xlink:href="#T"/><use transform="matrix(0.013020833333333332,0,0,0.013020833333333332,112.38281249999999,0)" xlink:href="#U"/><use transform="matrix(0.013020833333333332,0,0,0.013020833333333332,128.4375,0)" xlink:href="#S"/></g><path fill="#333" d="M494-1120c-16-286 77-439 348-436h221v153H854c-136 2-174 46-176 184v99h385v143H678V0H494v-977H195v-143h299" id="ak"/><path fill="#333" d="M535 29c-255 0-340-177-340-453v-694h184v694c1 183 52 293 219 293 191 0 268-148 268-354v-633h185V0H866v-168C807-50 701 29 535 29" id="al"/><path fill="#333" d="M420 270c135-3 180-101 180-250v-997H283v-143h501V20c2 243-112 405-344 406H186V270h234zm180-1826h184v233H600v-233" id="am"/><g id="g"><use transform="matrix(0.013020833333333332,0,0,0.013020833333333332,0,0)" xlink:href="#ak"/><use transform="matrix(0.013020833333333332,0,0,0.013020833333333332,16.0546875,0)" xlink:href="#al"/><use transform="matrix(0.013020833333333332,0,0,0.013020833333333332,32.109375,0)" xlink:href="#T"/><use transform="matrix(0.013020833333333332,0,0,0.013020833333333332,48.1640625,0)" xlink:href="#Y"/><use transform="matrix(0.013020833333333332,0,0,0.013020833333333332,64.21875,0)" xlink:href="#ab"/><use transform="matrix(0.013020833333333332,0,0,0.013020833333333332,80.2734375,0)" xlink:href="#am"/><use transform="matrix(0.013020833333333332,0,0,0.013020833333333332,96.328125,0)" xlink:href="#U"/></g><g id="h"><use transform="matrix(0.013020833333333332,0,0,0.013020833333333332,0,0)" xlink:href="#Z"/><use transform="matrix(0.013020833333333332,0,0,0.013020833333333332,16.0546875,0)" xlink:href="#W"/><use transform="matrix(0.013020833333333332,0,0,0.013020833333333332,32.109375,0)" xlink:href="#U"/><use transform="matrix(0.013020833333333332,0,0,0.013020833333333332,48.1640625,0)" xlink:href="#Y"/></g><path fill="#333" d="M711-1147c253 0 340 178 340 453V0H866v-694c-1-183-51-293-219-293-189 0-268 148-268 354V0H195v-1556h184v604c60-118 165-195 332-195" id="an"/><g id="i"><use transform="matrix(0.013020833333333332,0,0,0.013020833333333332,0,0)" xlink:href="#T"/><use transform="matrix(0.013020833333333332,0,0,0.013020833333333332,16.0546875,0)" xlink:href="#T"/><use transform="matrix(0.013020833333333332,0,0,0.013020833333333332,32.109375,0)" xlink:href="#ag"/><use transform="matrix(0.013020833333333332,0,0,0.013020833333333332,48.1640625,0)" xlink:href="#an"/><use transform="matrix(0.013020833333333332,0,0,0.013020833333333332,64.21875,0)" xlink:href="#af"/><use transform="matrix(0.013020833333333332,0,0,0.013020833333333332,80.2734375,0)" xlink:href="#af"/></g><path d="M684-1470l-104 415h245l105-415h160l-105 415h244v154H948l-84 334h250v153H825L721 0H561l105-414H420L315 0H156l104-414H2v-153h297l84-334H117v-154h303l104-415h160zm104 569H543l-84 334h246" id="ao"/><path d="M559-1147c146 0 246 68 299 170v-579h184V0H858v-141C803-40 706 29 559 29c-300 0-436-264-436-592 0-325 139-584 436-584zM385-882c-81 129-87 521 0 646 49 70 112 109 201 109s152-39 202-110c89-127 83-514 0-645-88-139-315-140-403 0" id="ap"/><path d="M651-1147c298 0 466 229 461 541v90H315c-4 242 129 392 365 389 156-2 268-51 389-113v183C949-8 828 27 678 29c-351 3-555-232-555-588 0-338 200-588 528-588zm277 487c-4-201-91-331-285-331-193 0-305 144-321 332" id="aq"/><path d="M494-1120c-16-286 77-439 348-436h221v153H854c-136 2-174 46-176 184v99h385v143H678V0H494v-977H195v-143h299" id="ar"/><path d="M256-1120h471v977h365V0H178v-143h365v-834H256v-143zm287-436h184v233H543v-233" id="as"/><path d="M711-1147c253 0 340 178 340 453V0H866v-694c-1-183-51-293-219-293-189 0-268 148-268 354V0H195v-1120h184v168c60-118 165-195 332-195" id="at"/><g id="j"><use transform="matrix(0.010850694444444442,0,0,0.010850694444444442,0,0)" xlink:href="#ao"/><use transform="matrix(0.010850694444444442,0,0,0.010850694444444442,13.378906249999998,0)" xlink:href="#ap"/><use transform="matrix(0.010850694444444442,0,0,0.010850694444444442,26.757812499999996,0)" xlink:href="#aq"/><use transform="matrix(0.010850694444444442,0,0,0.010850694444444442,40.13671874999999,0)" xlink:href="#ar"/><use transform="matrix(0.010850694444444442,0,0,0.010850694444444442,53.51562499999999,0)" xlink:href="#as"/><use transform="matrix(0.010850694444444442,0,0,0.010850694444444442,66.89453124999999,0)" xlink:href="#at"/><use transform="matrix(0.010850694444444442,0,0,0.010850694444444442,80.27343749999999,0)" xlink:href="#aq"/></g><path d="M139-1493h256L899-264v-1229h195V0H838L334-1229V0H139v-1493" id="au"/><path d="M1233 403v80H0v-80h1233" id="av"/><path d="M137-1493h203v612h553v-612h203V0H893v-711H340V0H137v-1493" id="aw"/><path d="M930-1047c0-180-114-280-297-280H399v561h234c182 2 297-102 297-281zm211 0c0 308-189 448-508 447H399V0H197v-1493h436c317-2 508 140 508 446" id="ax"/><g id="k"><use transform="matrix(0.010850694444444442,0,0,0.010850694444444442,0,0)" xlink:href="#au"/><use transform="matrix(0.010850694444444442,0,0,0.010850694444444442,13.378906249999998,0)" xlink:href="#au"/><use transform="matrix(0.010850694444444442,0,0,0.010850694444444442,26.757812499999996,0)" xlink:href="#av"/><use transform="matrix(0.010850694444444442,0,0,0.010850694444444442,40.13671874999999,0)" xlink:href="#aw"/><use transform="matrix(0.010850694444444442,0,0,0.010850694444444442,53.51562499999999,0)" xlink:href="#ax"/><use transform="matrix(0.010850694444444442,0,0,0.010850694444444442,66.89453124999999,0)" xlink:href="#ax"/><use transform="matrix(0.010850694444444442,0,0,0.010850694444444442,80.27343749999999,0)" xlink:href="#av"/></g><path d="M100-1120h191l325 940 326-940h191L735 0H498" id="ay"/><path d="M616-991c-93 0-161 39-212 109-92 126-92 520 0 646 52 70 119 109 212 109 94 0 161-39 213-109 93-126 92-520 0-646-52-70-119-109-213-109zM137-559c0-353 146-588 479-588s480 235 480 588c0 355-145 588-480 588-334 0-479-234-479-588" id="az"/><g id="l"><use transform="matrix(0.010850694444444442,0,0,0.010850694444444442,0,0)" xlink:href="#ay"/><use transform="matrix(0.010850694444444442,0,0,0.010850694444444442,13.378906249999998,0)" xlink:href="#az"/><use transform="matrix(0.010850694444444442,0,0,0.010850694444444442,26.757812499999996,0)" xlink:href="#as"/><use transform="matrix(0.010850694444444442,0,0,0.010850694444444442,40.13671874999999,0)" xlink:href="#ap"/></g><path d="M426-643c0-377 131-645 299-911h160c-153 264-264 539-264 911 0 371 112 648 264 913H725C557 0 426-263 426-643" id="aA"/><path d="M489-305h252V0H489v-305" id="aB"/><path d="M612-643c0-370-112-648-264-911h160c168 267 299 533 299 911 0 379-131 646-299 913H348C499 3 612-272 612-643" id="aC"/><path d="M502-303h252v207L557 287H403l99-383v-207zm-13-760h252v303H489v-303" id="aD"/><g id="m"><use transform="matrix(0.010850694444444442,0,0,0.010850694444444442,0,0)" xlink:href="#at"/><use transform="matrix(0.010850694444444442,0,0,0.010850694444444442,13.378906249999998,0)" xlink:href="#at"/><use transform="matrix(0.010850694444444442,0,0,0.010850694444444442,26.757812499999996,0)" xlink:href="#aA"/><use transform="matrix(0.010850694444444442,0,0,0.010850694444444442,40.13671874999999,0)" xlink:href="#aB"/><use transform="matrix(0.010850694444444442,0,0,0.010850694444444442,53.51562499999999,0)" xlink:href="#aB"/><use transform="matrix(0.010850694444444442,0,0,0.010850694444444442,66.89453124999999,0)" xlink:href="#aB"/><use transform="matrix(0.010850694444444442,0,0,0.010850694444444442,80.27343749999999,0)" xlink:href="#aC"/><use transform="matrix(0.010850694444444442,0,0,0.010850694444444442,93.65234374999999,0)" xlink:href="#aD"/></g><path fill="#333" d="M1153-1120C1010-750 884-433 741-52c-66 176-110 283-133 322-55 94-138 156-276 156H184V272c97 0 188 7 236-47 29-33 70-112 117-243L104-1120h195l332 876 327-876h195" id="aE"/><g id="n"><use transform="matrix(0.013020833333333332,0,0,0.013020833333333332,0,0)" xlink:href="#Z"/><use transform="matrix(0.013020833333333332,0,0,0.013020833333333332,16.0546875,0)" xlink:href="#aa"/><use transform="matrix(0.013020833333333332,0,0,0.013020833333333332,32.109375,0)" xlink:href="#Q"/><use transform="matrix(0.013020833333333332,0,0,0.013020833333333332,48.1640625,0)" xlink:href="#aa"/><use transform="matrix(0.013020833333333332,0,0,0.013020833333333332,64.21875,0)" xlink:href="#ae"/><use transform="matrix(0.013020833333333332,0,0,0.013020833333333332,80.2734375,0)" xlink:href="#S"/><use transform="matrix(0.013020833333333332,0,0,0.013020833333333332,96.328125,0)" xlink:href="#X"/><use transform="matrix(0.013020833333333332,0,0,0.013020833333333332,112.38281249999999,0)" xlink:href="#Q"/><use transform="matrix(0.013020833333333332,0,0,0.013020833333333332,128.4375,0)" xlink:href="#aE"/></g><g id="o"><use transform="matrix(0.013020833333333332,0,0,0.013020833333333332,0,0)" xlink:href="#ac"/><use transform="matrix(0.013020833333333332,0,0,0.013020833333333332,16.0546875,0)" xlink:href="#Z"/></g><g id="p"><use transform="matrix(0.010850694444444444,0,0,0.010850694444444444,0,0)" xlink:href="#T"/><use transform="matrix(0.010850694444444444,0,0,0.010850694444444444,13.37890625,0)" xlink:href="#T"/></g><path fill="#333" d="M489-1063h252v303H489v-303zm0 758h252V0H489v-305" id="aF"/><path fill="#333" d="M637-1147c132 1 237 25 336 66v180c-92-53-190-92-322-92-145 0-248 35-248 164 0 50 15 87 46 112 23 30 197 67 303 86 166 30 278 123 278 307 0 239-191 356-446 353-140-2-251-31-371-70v-190c114 58 228 103 375 106 145 3 253-56 256-188 3-87-90-149-253-179-210-38-374-93-374-319 0-232 173-338 420-336" id="aG"/><path fill="#333" d="M1233 403v80H0v-80h1233" id="aH"/><path fill="#333" d="M616-1315L403-551h426zm-122-178h245L1196 0H987L877-389H354L246 0H37" id="aI"/><path fill="#333" d="M86-1493h217l328 563 334-563h217L735-791 1214 0H997L631-643 236 0H18l500-791" id="aJ"/><path fill="#333" d="M215-1493h203v1323h721V0H215v-1493" id="aK"/><path fill="#333" d="M631-1520c144 2 262 34 381 78v205c-106-67-218-116-371-119-174-3-308 84-309 246 0 66 20 114 54 151 44 48 204 86 310 111 250 58 402 161 402 440 0 301-201 439-516 437-164-1-298-37-424-90v-215c130 81 244 137 424 141 187 4 323-84 323-260 0-181-93-224-262-262-271-61-502-123-504-422-2-273 211-447 492-441" id="aL"/><path fill="#333" d="M270-170h314v-1141l-338 76v-184l336-74h202v1323h310V0H270v-170" id="aM"/><path fill="#333" d="M614-616c-74 0-131-59-131-134 0-70 61-135 131-135 72 0 136 64 136 135 0 73-63 134-136 134zm2-744c-94 0-159 53-210 152-88 171-88 754 0 925 51 99 116 152 210 152 95 0 161-53 212-152 88-172 88-754 0-925-51-99-117-152-212-152zm0-160c159 0 280 65 362 196s122 324 122 579-40 447-122 578S775 29 616 29 336-36 255-167 133-490 133-745s41-448 122-579 202-196 361-196" id="aN"/><path fill="#333" d="M563-1520c272-5 493 161 486 422-5 184-82 278-189 404-156 183-266 291-487 524h686V0H152v-170c181-191 381-399 520-561 68-80 112-147 135-197s35-102 35-155c2-166-108-271-275-267-164 4-280 61-403 133v-204c119-56 242-96 399-99" id="aO"/><path fill="#333" d="M735-1309L264-520h471v-789zm-33-184h234v973h199v164H936V0H735v-356H102v-191" id="aP"/><g id="q"><use transform="matrix(0.010850694444444444,0,0,0.010850694444444444,0,0)" xlink:href="#U"/><use transform="matrix(0.010850694444444444,0,0,0.010850694444444444,13.37890625,0)" xlink:href="#T"/><use transform="matrix(0.010850694444444444,0,0,0.010850694444444444,26.7578125,0)" xlink:href="#af"/><use transform="matrix(0.010850694444444444,0,0,0.010850694444444444,40.13671875,0)" xlink:href="#al"/><use transform="matrix(0.010850694444444444,0,0,0.010850694444444444,53.515625,0)" xlink:href="#X"/><use transform="matrix(0.010850694444444444,0,0,0.010850694444444444,66.89453125,0)" xlink:href="#aF"/><use transform="matrix(0.010850694444444444,0,0,0.010850694444444444,80.2734375,0)" xlink:href="#aG"/><use transform="matrix(0.010850694444444444,0,0,0.010850694444444444,93.65234375,0)" xlink:href="#aH"/><use transform="matrix(0.010850694444444444,0,0,0.010850694444444444,107.03125,0)" xlink:href="#aa"/><use transform="matrix(0.010850694444444444,0,0,0.010850694444444444,120.41015625,0)" xlink:href="#ah"/><use transform="matrix(0.010850694444444444,0,0,0.010850694444444444,133.7890625,0)" xlink:href="#U"/><use transform="matrix(0.010850694444444444,0,0,0.010850694444444444,147.16796875,0)" xlink:href="#aH"/><use transform="matrix(0.010850694444444444,0,0,0.010850694444444444,160.546875,0)" xlink:href="#aI"/><use transform="matrix(0.010850694444444444,0,0,0.010850694444444444,173.92578125,0)" xlink:href="#aJ"/><use transform="matrix(0.010850694444444444,0,0,0.010850694444444444,187.3046875,0)" xlink:href="#ac"/><use transform="matrix(0.010850694444444444,0,0,0.010850694444444444,200.68359375,0)" xlink:href="#aK"/><use transform="matrix(0.010850694444444444,0,0,0.010850694444444444,214.0625,0)" xlink:href="#U"/><use transform="matrix(0.010850694444444444,0,0,0.010850694444444444,227.44140625,0)" xlink:href="#X"/><use transform="matrix(0.010850694444444444,0,0,0.010850694444444444,240.8203125,0)" xlink:href="#S"/><use transform="matrix(0.010850694444444444,0,0,0.010850694444444444,254.19921875,0)" xlink:href="#aL"/><use transform="matrix(0.010850694444444444,0,0,0.010850694444444444,267.578125,0)" xlink:href="#aF"/><use transform="matrix(0.010850694444444444,0,0,0.010850694444444444,280.95703125,0)" xlink:href="#U"/><use transform="matrix(0.010850694444444444,0,0,0.010850694444444444,294.3359375,0)" xlink:href="#T"/><use transform="matrix(0.010850694444444444,0,0,0.010850694444444444,307.71484375,0)" xlink:href="#aF"/><use transform="matrix(0.010850694444444444,0,0,0.010850694444444444,321.09375,0)" xlink:href="#aM"/><use transform="matrix(0.010850694444444444,0,0,0.010850694444444444,334.47265625,0)" xlink:href="#aN"/><use transform="matrix(0.010850694444444444,0,0,0.010850694444444444,347.8515625,0)" xlink:href="#aO"/><use transform="matrix(0.010850694444444444,0,0,0.010850694444444444,361.23046875,0)" xlink:href="#aP"/></g><path fill="#333" d="M899-420c0-180-104-289-283-289-180 0-282 108-282 289 0 180 104 291 282 291 182 0 283-107 283-291zm-768 21c0-223 119-354 309-394-157-38-273-156-274-340-1-248 191-387 450-387 260 0 452 139 451 387-1 184-118 303-274 340 189 40 308 170 309 392 1 278-198 430-486 430S130-121 131-399zm485-965c-161 0-249 90-249 250s89 246 249 246c161 0 251-86 250-246 0-163-87-250-250-250" id="aQ"/><g id="r"><use transform="matrix(0.010850694444444444,0,0,0.010850694444444444,0,0)" xlink:href="#P"/><use transform="matrix(0.010850694444444444,0,0,0.010850694444444444,13.37890625,0)" xlink:href="#al"/><use transform="matrix(0.010850694444444444,0,0,0.010850694444444444,26.7578125,0)" xlink:href="#X"/><use transform="matrix(0.010850694444444444,0,0,0.010850694444444444,40.13671875,0)" xlink:href="#af"/><use transform="matrix(0.010850694444444444,0,0,0.010850694444444444,53.515625,0)" xlink:href="#al"/><use transform="matrix(0.010850694444444444,0,0,0.010850694444444444,66.89453125,0)" xlink:href="#X"/><use transform="matrix(0.010850694444444444,0,0,0.010850694444444444,80.2734375,0)" xlink:href="#aF"/><use transform="matrix(0.010850694444444444,0,0,0.010850694444444444,93.65234375,0)" xlink:href="#aG"/><use transform="matrix(0.010850694444444444,0,0,0.010850694444444444,107.03125,0)" xlink:href="#aH"/><use transform="matrix(0.010850694444444444,0,0,0.010850694444444444,120.41015625,0)" xlink:href="#aa"/><use transform="matrix(0.010850694444444444,0,0,0.010850694444444444,133.7890625,0)" xlink:href="#ah"/><use transform="matrix(0.010850694444444444,0,0,0.010850694444444444,147.16796875,0)" xlink:href="#U"/><use transform="matrix(0.010850694444444444,0,0,0.010850694444444444,160.546875,0)" xlink:href="#aH"/><use transform="matrix(0.010850694444444444,0,0,0.010850694444444444,173.92578125,0)" xlink:href="#aI"/><use transform="matrix(0.010850694444444444,0,0,0.010850694444444444,187.3046875,0)" xlink:href="#aJ"/><use transform="matrix(0.010850694444444444,0,0,0.010850694444444444,200.68359375,0)" xlink:href="#ac"/><use transform="matrix(0.010850694444444444,0,0,0.010850694444444444,214.0625,0)" xlink:href="#aK"/><use transform="matrix(0.010850694444444444,0,0,0.010850694444444444,227.44140625,0)" xlink:href="#U"/><use transform="matrix(0.010850694444444444,0,0,0.010850694444444444,240.8203125,0)" xlink:href="#X"/><use transform="matrix(0.010850694444444444,0,0,0.010850694444444444,254.19921875,0)" xlink:href="#S"/><use transform="matrix(0.010850694444444444,0,0,0.010850694444444444,267.578125,0)" xlink:href="#aL"/><use transform="matrix(0.010850694444444444,0,0,0.010850694444444444,280.95703125,0)" xlink:href="#aF"/><use transform="matrix(0.010850694444444444,0,0,0.010850694444444444,294.3359375,0)" xlink:href="#P"/><use transform="matrix(0.010850694444444444,0,0,0.010850694444444444,307.71484375,0)" xlink:href="#al"/><use transform="matrix(0.010850694444444444,0,0,0.010850694444444444,321.09375,0)" xlink:href="#X"/><use transform="matrix(0.010850694444444444,0,0,0.010850694444444444,334.47265625,0)" xlink:href="#aF"/><use transform="matrix(0.010850694444444444,0,0,0.010850694444444444,347.8515625,0)" xlink:href="#aO"/><use transform="matrix(0.010850694444444444,0,0,0.010850694444444444,361.23046875,0)" xlink:href="#aN"/><use transform="matrix(0.010850694444444444,0,0,0.010850694444444444,374.609375,0)" xlink:href="#aP"/><use transform="matrix(0.010850694444444444,0,0,0.010850694444444444,387.98828125,0)" xlink:href="#aQ"/></g><path fill="#333" d="M559-1147c146 0 246 68 299 170v-579h184V0H858v-141C803-40 706 29 559 29c-300 0-436-264-436-592 0-325 139-584 436-584zM385-882c-81 129-87 521 0 646 49 70 112 109 201 109s152-39 202-110c89-127 83-514 0-645-88-139-315-140-403 0" id="aR"/><g id="s"><use transform="matrix(0.013020833333333332,0,0,0.013020833333333332,0,0)" xlink:href="#aG"/><use transform="matrix(0.013020833333333332,0,0,0.013020833333333332,16.0546875,0)" xlink:href="#aR"/><use transform="matrix(0.013020833333333332,0,0,0.013020833333333332,32.109375,0)" xlink:href="#ah"/><use transform="matrix(0.013020833333333332,0,0,0.013020833333333332,48.1640625,0)" xlink:href="#aH"/><use transform="matrix(0.013020833333333332,0,0,0.013020833333333332,64.21875,0)" xlink:href="#af"/><use transform="matrix(0.013020833333333332,0,0,0.013020833333333332,80.2734375,0)" xlink:href="#aa"/><use transform="matrix(0.013020833333333332,0,0,0.013020833333333332,96.328125,0)" xlink:href="#ab"/><use transform="matrix(0.013020833333333332,0,0,0.013020833333333332,112.38281249999999,0)" xlink:href="#Y"/></g><path fill="#333" d="M934-430c0-206-112-282-326-283H369v547h239c220-2 326-58 326-264zm-53-684c0-168-96-213-277-213H369v450h235c186-1 277-59 277-237zm256 704C1133-113 928 1 608 0H166v-1493h442c280-3 477 118 477 379 0 189-93 290-262 315 190 26 317 174 314 389" id="aS"/><g id="t"><use transform="matrix(0.013020833333333332,0,0,0.013020833333333332,0,0)" xlink:href="#aS"/><use transform="matrix(0.013020833333333332,0,0,0.013020833333333332,16.0546875,0)" xlink:href="#U"/><use transform="matrix(0.013020833333333332,0,0,0.013020833333333332,32.109375,0)" xlink:href="#V"/><use transform="matrix(0.013020833333333332,0,0,0.013020833333333332,48.1640625,0)" xlink:href="#W"/><use transform="matrix(0.013020833333333332,0,0,0.013020833333333332,64.21875,0)" xlink:href="#U"/><use transform="matrix(0.013020833333333332,0,0,0.013020833333333332,80.2734375,0)" xlink:href="#P"/><use transform="matrix(0.013020833333333332,0,0,0.013020833333333332,96.328125,0)" xlink:href="#X"/><use transform="matrix(0.013020833333333332,0,0,0.013020833333333332,112.38281249999999,0)" xlink:href="#S"/><use transform="matrix(0.013020833333333332,0,0,0.013020833333333332,128.4375,0)" xlink:href="#Y"/><use transform="matrix(0.013020833333333332,0,0,0.013020833333333332,144.4921875,0)" xlink:href="#aa"/></g><g id="u"><use transform="matrix(0.013020833333333334,0,0,0.013020833333333334,0,0)" xlink:href="#W"/><use transform="matrix(0.013020833333333334,0,0,0.013020833333333334,16.0546875,0)" xlink:href="#U"/><use transform="matrix(0.013020833333333334,0,0,0.013020833333333334,32.109375,0)" xlink:href="#V"/><use transform="matrix(0.013020833333333334,0,0,0.013020833333333334,48.1640625,0)" xlink:href="#T"/><use transform="matrix(0.013020833333333334,0,0,0.013020833333333334,64.21875,0)" xlink:href="#T"/><use transform="matrix(0.013020833333333334,0,0,0.013020833333333334,80.2734375,0)" xlink:href="#ag"/><use transform="matrix(0.013020833333333334,0,0,0.013020833333333334,96.328125,0)" xlink:href="#aa"/></g><path fill="#333" d="M147-573v-920h203v1012c-18 236 56 346 266 346 147 0 240-59 261-190 4-31 6-82 6-154v-1014h202v920c-4 268-7 369-127 485C878-11 767 29 616 29c-229 0-384-97-440-277-20-65-29-174-29-325" id="aT"/><path fill="#333" d="M513-1552h205v204H513v-204zm-286 430h813v168L397-150h643V0H203v-170l643-805H227v-147" id="aU"/><g id="v"><use transform="matrix(0.013020833333333332,0,0,0.013020833333333332,0,0)" xlink:href="#aT"/><use transform="matrix(0.013020833333333332,0,0,0.013020833333333332,16.0546875,0)" xlink:href="#aU"/><use transform="matrix(0.013020833333333332,0,0,0.013020833333333332,32.109375,0)" xlink:href="#aE"/><use transform="matrix(0.013020833333333332,0,0,0.013020833333333332,48.1640625,0)" xlink:href="#O"/><use transform="matrix(0.013020833333333332,0,0,0.013020833333333332,64.21875,0)" xlink:href="#aa"/><use transform="matrix(0.013020833333333332,0,0,0.013020833333333332,80.2734375,0)" xlink:href="#T"/><use transform="matrix(0.013020833333333332,0,0,0.013020833333333332,96.328125,0)" xlink:href="#U"/><use transform="matrix(0.013020833333333332,0,0,0.013020833333333332,112.38281249999999,0)" xlink:href="#S"/></g><path d="M748-127c144 0 233-46 313-121v191C974-6 875 28 748 29c-351 3-553-232-553-588 0-357 202-591 553-588 129 2 222 35 313 86v193c-88-76-165-123-313-123-245 0-359 174-359 432 0 257 115 432 359 432" id="aV"/><path d="M801 0C570 0 455-164 455-406v-1017H160v-144h479v1161c0 147 46 250 180 250h215V0H801" id="aW"/><path d="M535 29c-255 0-340-177-340-453v-694h184v694c1 183 52 293 219 293 191 0 268-148 268-354v-633h185V0H866v-168C807-50 701 29 535 29" id="aX"/><g id="w"><use transform="matrix(0.009765624999999997,0,0,0.009765624999999997,0,0)" xlink:href="#ao"/><use transform="matrix(0.009765624999999997,0,0,0.009765624999999997,12.041015624999996,0)" xlink:href="#as"/><use transform="matrix(0.009765624999999997,0,0,0.009765624999999997,24.082031249999993,0)" xlink:href="#at"/><use transform="matrix(0.009765624999999997,0,0,0.009765624999999997,36.123046874999986,0)" xlink:href="#aV"/><use transform="matrix(0.009765624999999997,0,0,0.009765624999999997,48.164062499999986,0)" xlink:href="#aW"/><use transform="matrix(0.009765624999999997,0,0,0.009765624999999997,60.205078124999986,0)" xlink:href="#aX"/><use transform="matrix(0.009765624999999997,0,0,0.009765624999999997,72.24609374999999,0)" xlink:href="#ap"/><use transform="matrix(0.009765624999999997,0,0,0.009765624999999997,84.28710937499999,0)" xlink:href="#aq"/></g><path d="M895-1493v555H721v-555h174zm-383 0v555H338v-555h174" id="aY"/><path d="M711-1147c253 0 340 178 340 453V0H866v-694c-1-183-51-293-219-293-189 0-268 148-268 354V0H195v-1556h184v604c60-118 165-195 332-195" id="aZ"/><path d="M674 29c-147 0-246-68-299-170v567H190v-1546h185v143c55-101 152-170 299-170 300 0 434 263 434 592 0 325-137 584-434 584zm174-265c87-125 87-521 0-646-48-70-112-109-201-109s-154 38-203 109c-89 127-89 518 0 645 49 71 114 110 203 110s153-39 201-109" id="ba"/><g id="x"><use transform="matrix(0.009765624999999997,0,0,0.009765624999999997,0,0)" xlink:href="#aY"/><use transform="matrix(0.009765624999999997,0,0,0.009765624999999997,12.041015624999996,0)" xlink:href="#at"/><use transform="matrix(0.009765624999999997,0,0,0.009765624999999997,24.082031249999993,0)" xlink:href="#at"/><use transform="matrix(0.009765624999999997,0,0,0.009765624999999997,36.123046874999986,0)" xlink:href="#aB"/><use transform="matrix(0.009765624999999997,0,0,0.009765624999999997,48.164062499999986,0)" xlink:href="#aZ"/><use transform="matrix(0.009765624999999997,0,0,0.009765624999999997,60.205078124999986,0)" xlink:href="#ba"/><use transform="matrix(0.009765624999999997,0,0,0.009765624999999997,72.24609374999999,0)" xlink:href="#ba"/><use transform="matrix(0.009765624999999997,0,0,0.009765624999999997,84.28710937499999,0)" xlink:href="#aY"/></g><g id="y"><use transform="matrix(0.009765624999999997,0,0,0.009765624999999997,0,0)" xlink:href="#ay"/><use transform="matrix(0.009765624999999997,0,0,0.009765624999999997,12.041015624999996,0)" xlink:href="#az"/><use transform="matrix(0.009765624999999997,0,0,0.009765624999999997,24.082031249999993,0)" xlink:href="#as"/><use transform="matrix(0.009765624999999997,0,0,0.009765624999999997,36.123046874999986,0)" xlink:href="#ap"/></g><path d="M471-1147c112 0 171 55 205 141 41-85 99-141 213-141 90 0 154 35 191 105s55 200 55 393V0H967v-641c0-158-12-256-27-295-31-81-176-72-206 4-17 42-29 138-29 291V0H537v-641c0-160-10-259-29-296s-53-56-102-56-83 20-102 61-28 138-28 291V0H109v-1120h167v96c38-70 97-123 195-123" id="bb"/><path d="M547-125c229-2 340-186 327-438H641c-189 0-321 55-324 225-3 137 91 215 230 213zm-332-944c167-71 431-115 615-37 106 45 186 120 213 246 11 49 16 123 16 221V0H874v-166C800-42 695 26 508 29c-220 3-378-138-375-355 4-274 199-382 494-381h247c6-204-80-285-282-284-149 1-272 46-377 106v-184" id="bc"/><g id="z"><use transform="matrix(0.009765624999999997,0,0,0.009765624999999997,0,0)" xlink:href="#bb"/><use transform="matrix(0.009765624999999997,0,0,0.009765624999999997,12.041015624999996,0)" xlink:href="#bc"/><use transform="matrix(0.009765624999999997,0,0,0.009765624999999997,24.082031249999993,0)" xlink:href="#as"/><use transform="matrix(0.009765624999999997,0,0,0.009765624999999997,36.123046874999986,0)" xlink:href="#at"/><use transform="matrix(0.009765624999999997,0,0,0.009765624999999997,48.164062499999986,0)" xlink:href="#aA"/><use transform="matrix(0.009765624999999997,0,0,0.009765624999999997,60.205078124999986,0)" xlink:href="#aC"/></g><path d="M717-39c6 195 31 223 225 229h70v144h-64c-326-9-410-53-418-369v-239c4-224-82-275-309-267v-143h62c196-4 247-65 247-264v-240c8-316 92-359 418-368h64v143h-70c-193 6-225 35-225 229v248c-2 202-44 284-201 324 157 42 201 122 201 325v248" id="bd"/><use transform="matrix(0.009765624999999997,0,0,0.009765624999999997,0,0)" xlink:href="#bd" id="A"/><g id="C"><use transform="matrix(0.009765624999999997,0,0,0.009765624999999997,0,0)" xlink:href="#aB"/><use transform="matrix(0.009765624999999997,0,0,0.009765624999999997,12.041015624999996,0)" xlink:href="#aB"/><use transform="matrix(0.009765624999999997,0,0,0.009765624999999997,24.082031249999993,0)" xlink:href="#aB"/></g><path d="M807 0C529-4 430-92 430-369v-608H131v-143h299v-318h184v318h418v143H614v608c2 165 49 222 211 222h207V0H807" id="be"/><path d="M502-303h252v207L557 287H403l99-383v-207" id="bf"/><g id="D"><use transform="matrix(0.009765624999999997,0,0,0.009765624999999997,0,0)" xlink:href="#at"/><use transform="matrix(0.009765624999999997,0,0,0.009765624999999997,12.041015624999996,0)" xlink:href="#at"/><use transform="matrix(0.009765624999999997,0,0,0.009765624999999997,24.082031249999993,0)" xlink:href="#aA"/><use transform="matrix(0.009765624999999997,0,0,0.009765624999999997,36.123046874999986,0)" xlink:href="#as"/><use transform="matrix(0.009765624999999997,0,0,0.009765624999999997,48.164062499999986,0)" xlink:href="#at"/><use transform="matrix(0.009765624999999997,0,0,0.009765624999999997,60.205078124999986,0)" xlink:href="#ba"/><use transform="matrix(0.009765624999999997,0,0,0.009765624999999997,72.24609374999999,0)" xlink:href="#aX"/><use transform="matrix(0.009765624999999997,0,0,0.009765624999999997,84.28710937499999,0)" xlink:href="#be"/><use transform="matrix(0.009765624999999997,0,0,0.009765624999999997,96.32812499999999,0)" xlink:href="#bf"/></g><g id="E"><use transform="matrix(0.009765624999999997,0,0,0.009765624999999997,0,0)" xlink:href="#az"/><use transform="matrix(0.009765624999999997,0,0,0.009765624999999997,12.041015624999996,0)" xlink:href="#aX"/><use transform="matrix(0.009765624999999997,0,0,0.009765624999999997,24.082031249999993,0)" xlink:href="#be"/><use transform="matrix(0.009765624999999997,0,0,0.009765624999999997,36.123046874999986,0)" xlink:href="#ba"/><use transform="matrix(0.009765624999999997,0,0,0.009765624999999997,48.164062499999986,0)" xlink:href="#aX"/><use transform="matrix(0.009765624999999997,0,0,0.009765624999999997,60.205078124999986,0)" xlink:href="#be"/><use transform="matrix(0.009765624999999997,0,0,0.009765624999999997,72.24609374999999,0)" xlink:href="#aC"/><use transform="matrix(0.009765624999999997,0,0,0.009765624999999997,84.28710937499999,0)" xlink:href="#aD"/></g><g id="F"><use transform="matrix(0.009765624999999997,0,0,0.009765624999999997,0,0)" xlink:href="#aB"/><use transform="matrix(0.009765624999999997,0,0,0.009765624999999997,12.041015624999996,0)" xlink:href="#aB"/><use transform="matrix(0.009765624999999997,0,0,0.009765624999999997,24.082031249999993,0)" xlink:href="#aB"/></g><path fill="#333" d="M893-745c0-411-75-571-457-582h-96v1161h96c379-11 457-171 457-579zm213 0C1106-253 917-4 440 0H137v-1493h303c477 4 666 255 666 748" id="bg"/><g id="G"><use transform="matrix(0.010850694444444444,0,0,0.010850694444444444,0,0)" xlink:href="#aL"/><use transform="matrix(0.010850694444444444,0,0,0.010850694444444444,13.37890625,0)" xlink:href="#bg"/><use transform="matrix(0.010850694444444444,0,0,0.010850694444444444,26.7578125,0)" xlink:href="#ah"/><path fill="#333" d="M-1.1.92h55.73v.98H-1.1z"/></g><path fill="#333" d="M197-1493h886v170H399v442h654v170H399v541h703V0H197v-1493" id="bh"/><g id="H"><use transform="matrix(0.010850694444444444,0,0,0.010850694444444444,0,0)" xlink:href="#ac"/><use transform="matrix(0.010850694444444444,0,0,0.010850694444444444,13.37890625,0)" xlink:href="#bg"/><use transform="matrix(0.010850694444444444,0,0,0.010850694444444444,26.7578125,0)" xlink:href="#bh"/><path fill="#333" d="M-1.1.92h42.35v.98H-1.1z"/></g><path fill="#333" d="M838-276c84-151 84-788 0-939-51-91-119-141-222-141-102 0-169 50-220 141-84 151-84 788 0 939 51 91 118 141 220 141 103 0 171-50 222-141zm278-469c0 260-42 454-124 582S785 29 616 29 322-35 240-162 117-484 117-745s41-455 123-583 208-192 376-192c169 0 294 64 376 192s124 322 124 583" id="bi"/><g id="I"><use transform="matrix(0.010850694444444444,0,0,0.010850694444444444,0,0)" xlink:href="#bi"/><use transform="matrix(0.010850694444444444,0,0,0.010850694444444444,13.37890625,0)" xlink:href="#af"/><use transform="matrix(0.010850694444444444,0,0,0.010850694444444444,26.7578125,0)" xlink:href="#ab"/><use transform="matrix(0.010850694444444444,0,0,0.010850694444444444,40.13671875,0)" xlink:href="#am"/><use transform="matrix(0.010850694444444444,0,0,0.010850694444444444,53.515625,0)" xlink:href="#S"/></g><g id="J"><use transform="matrix(0.010850694444444444,0,0,0.010850694444444444,0,0)" xlink:href="#W"/><use transform="matrix(0.010850694444444444,0,0,0.010850694444444444,13.37890625,0)" xlink:href="#U"/><use transform="matrix(0.010850694444444444,0,0,0.010850694444444444,26.7578125,0)" xlink:href="#T"/><use transform="matrix(0.010850694444444444,0,0,0.010850694444444444,40.13671875,0)" xlink:href="#Y"/><use transform="matrix(0.010850694444444444,0,0,0.010850694444444444,53.515625,0)" xlink:href="#P"/><use transform="matrix(0.010850694444444444,0,0,0.010850694444444444,66.89453125,0)" xlink:href="#O"/><use transform="matrix(0.010850694444444444,0,0,0.010850694444444444,80.2734375,0)" xlink:href="#aa"/><use transform="matrix(0.010850694444444444,0,0,0.010850694444444444,93.65234375,0)" xlink:href="#T"/><use transform="matrix(0.010850694444444444,0,0,0.010850694444444444,107.03125,0)" xlink:href="#U"/><use transform="matrix(0.010850694444444444,0,0,0.010850694444444444,120.41015625,0)" xlink:href="#aa"/></g><path fill="#333" d="M356-643h521v164H356v-164" id="bj"/><g id="K"><use transform="matrix(0.010850694444444444,0,0,0.010850694444444444,0,0)" xlink:href="#bj"/><use transform="matrix(0.010850694444444444,0,0,0.010850694444444444,13.37890625,0)" xlink:href="#W"/><use transform="matrix(0.010850694444444444,0,0,0.010850694444444444,26.7578125,0)" xlink:href="#T"/><use transform="matrix(0.010850694444444444,0,0,0.010850694444444444,40.13671875,0)" xlink:href="#T"/></g><g id="L"><use transform="matrix(0.010850694444444444,0,0,0.010850694444444444,0,0)" xlink:href="#bj"/><use transform="matrix(0.010850694444444444,0,0,0.010850694444444444,13.37890625,0)" xlink:href="#aK"/></g><path fill="#333" d="M1145-961L295-641l850 317v183L88-559v-166l1057-418v182" id="bk"/><path fill="#333" d="M88-961v-182l1057 418v166L88-141v-183l850-317" id="bl"/><g id="M"><use transform="matrix(0.010850694444444444,0,0,0.010850694444444444,0,0)" xlink:href="#bk"/><use transform="matrix(0.010850694444444444,0,0,0.010850694444444444,13.37890625,0)" xlink:href="#W"/><use transform="matrix(0.010850694444444444,0,0,0.010850694444444444,26.7578125,0)" xlink:href="#U"/><use transform="matrix(0.010850694444444444,0,0,0.010850694444444444,40.13671875,0)" xlink:href="#V"/><use transform="matrix(0.010850694444444444,0,0,0.010850694444444444,53.515625,0)" xlink:href="#T"/><use transform="matrix(0.010850694444444444,0,0,0.010850694444444444,66.89453125,0)" xlink:href="#T"/><use transform="matrix(0.010850694444444444,0,0,0.010850694444444444,80.2734375,0)" xlink:href="#ag"/><use transform="matrix(0.010850694444444444,0,0,0.010850694444444444,93.65234375,0)" xlink:href="#aa"/><use transform="matrix(0.010850694444444444,0,0,0.010850694444444444,107.03125,0)" xlink:href="#aH"/><use transform="matrix(0.010850694444444444,0,0,0.010850694444444444,120.41015625,0)" xlink:href="#af"/><use transform="matrix(0.010850694444444444,0,0,0.010850694444444444,133.7890625,0)" xlink:href="#aa"/><use transform="matrix(0.010850694444444444,0,0,0.010850694444444444,147.16796875,0)" xlink:href="#X"/><use transform="matrix(0.010850694444444444,0,0,0.010850694444444444,160.546875,0)" xlink:href="#an"/><use transform="matrix(0.010850694444444444,0,0,0.010850694444444444,173.92578125,0)" xlink:href="#bl"/></g></defs></g></svg>